<?xml version="1.0" encoding="utf-8"?>
<!-- Generator: Adobe Illustrator 25.0.1, SVG Export Plug-In . SVG Version: 6.00 Build 0)  -->
<svg version="1.1" xmlns="http://www.w3.org/2000/svg" xmlns:xlink="http://www.w3.org/1999/xlink" x="0px" y="0px"
	 viewBox="0 0 64.7 65.2" style="enable-background:new 0 0 64.7 65.2;" xml:space="preserve">
<style type="text/css">
	.st0{fill:#151211;}
	.st1{fill:#FFFFFF;}
	.st2{fill:none;stroke:#33FF98;stroke-width:3;stroke-miterlimit:10;}
	.st3{fill-rule:evenodd;clip-rule:evenodd;fill:#151211;}
	.st4{fill-rule:evenodd;clip-rule:evenodd;fill:#FFFFFF;}
	.st5{fill:#D8D8D8;}
	.st6{fill:#858585;stroke:#1D1D1B;stroke-width:8;stroke-linecap:round;stroke-linejoin:round;stroke-miterlimit:10;}
	.st7{fill:#6F6F6E;stroke:#1D1D1B;stroke-width:8;stroke-linecap:round;stroke-linejoin:round;stroke-miterlimit:10;}
	.st8{fill:#B0B0B0;stroke:#1D1D1B;stroke-width:6;stroke-linecap:round;stroke-linejoin:round;stroke-miterlimit:10;}
	.st9{fill:#3C3C3B;stroke:#1D1D1B;stroke-width:6;stroke-linecap:round;stroke-linejoin:round;stroke-miterlimit:10;}
	.st10{fill:#33FF99;stroke:#1D1D1B;stroke-width:8;stroke-linejoin:round;stroke-miterlimit:10;}
	.st11{fill:#33FF98;stroke:#151211;stroke-width:6;stroke-linejoin:round;stroke-miterlimit:10;}
	.st12{fill:#575756;stroke:#1D1D1B;stroke-width:6;stroke-linecap:round;stroke-linejoin:round;stroke-miterlimit:10;}
	.st13{fill:#4A4A49;stroke:#1D1D1B;stroke-width:6;stroke-linecap:round;stroke-linejoin:round;stroke-miterlimit:10;}
	.st14{fill:#9D9D9C;}
	.st15{opacity:0.35;fill:#444444;}
	.st16{fill:#575756;stroke:#1D1D1B;stroke-width:5;stroke-linecap:round;stroke-linejoin:round;stroke-miterlimit:10;}
	.st17{fill:none;stroke:#B0B0B0;stroke-width:2;stroke-linecap:round;stroke-linejoin:round;}
	.st18{fill:none;stroke:#B0B0B0;stroke-width:2;stroke-linecap:round;stroke-linejoin:round;stroke-dasharray:4.9835,4.9835;}
	.st19{fill:none;stroke:#1D1D1B;stroke-width:8;stroke-linecap:round;stroke-linejoin:round;stroke-miterlimit:10;}
	.st20{fill:#1D1D1B;}
</style>
<g id="grid_1200">
</g>
<g id="Vrstva_4">
</g>
<g id="Vrstva_5">
</g>
<g id="grafika">
</g>
<g id="VÝBĚR">
</g>
<g id="BARVY">
</g>
<g id="ZVOLENO">
</g>
<g id="FORMÁTY">
</g>
<g id="TLOUŠŤKA">
</g>
<g id="POVRCHY">
</g>
<g id="Menu">
</g>
<g id="Mapa_obrys">
	<g>
		<path class="st3" d="M35.1,64.1c0.3-0.2,1.5-0.2,1.9-0.4C35.1,63.8,35.1,63.8,35.1,64.1z"/>
		<path class="st3" d="M1,30.6c-0.2,1.2-0.1,2.1,0,2.8C0.9,32.6,1.1,31.3,1,30.6z"/>
		<path class="st3" d="M31.5,64.1c0.1,0,0.2,0.1,0.3,0.1c0.1,0,0.3,0,0.5,0c-0.2,0-0.3-0.1-0.4-0.1C31.7,64,31.5,64,31.5,64.1z"/>
		<path class="st3" d="M33.4,64.1c-0.1,0-0.1,0-0.2,0.1c0.1,0,0.3,0,0.4,0c0,0,0.2-0.1,0.1-0.1C33.7,64.1,33.5,64.1,33.4,64.1z"/>
		<path class="st3" d="M36.5,0.7c1.1,0.2,2.3,0.5,3.4,0.7c0.4,0.1,0.8,0.3,1.3,0.4c0.9,0.1,1.8,0.7,2.7,1l-0.1-0.1
			c0.5,0.2,0.8,0.4,1.3,0.6C45.5,3.5,46,3.8,46.4,4c0.7,0.4,1.4,0.7,2,1.2c0.3,0.2,0.6,0.4,0.8,0.5c0.5,0.4,1,0.7,1.6,1.1
			c0.2,0.1,0.6,0.4,0.7,0.5c0.2,0.1,0.3,0.2,0.4,0.2c-0.2-0.3-0.6-0.6-1-0.9L49,5.3c-0.6-0.4-1.1-0.8-1.7-1
			c-0.4-0.2-0.8-0.5-1.3-0.7c-0.7-0.3-1.5-0.8-2.2-1c-0.3-0.1-0.6-0.2-0.8-0.3c-0.5-0.2-1-0.5-1.4-0.5c-0.2-0.1-0.4-0.1-0.5-0.2
			c-0.1-0.1-0.3-0.1-0.4-0.1c-0.1,0-0.3-0.1-0.4-0.1c-1.3-0.4-2.5-0.8-3.8-0.9c-0.3,0-0.5,0-0.6,0C36,0.6,36.2,0.7,36.5,0.7z
			 M48.6,5.2C48.6,5.2,48.6,5.2,48.6,5.2c0.1,0.1,0.3,0.2,0.4,0.3C48.9,5.4,48.7,5.3,48.6,5.2C48.6,5.2,48.6,5.2,48.6,5.2L48.6,5.2z
			"/>
		<path class="st3" d="M59.2,51.2C59.2,51.2,59.2,51.2,59.2,51.2c0,0,0,0.1-0.1,0.1L59.2,51.2z"/>
		<path class="st3" d="M63.5,37.8C63.5,37.7,63.5,37.7,63.5,37.8c0.1-0.9,0.3-1.7,0.2-2.6c0,0.1-0.1,0.1-0.1,0.2c0-0.2,0-0.4,0-0.5
			l0-0.1l0-0.2c0-0.7,0-1.4,0-2.1c0-0.1,0-0.2-0.1-0.4c-0.2-2-0.5-4.1-1.1-6c-0.1-0.1-0.1-0.3-0.2-0.4c-0.5-1.7-1-3.2-1.7-4.9
			c-0.1-0.1-0.2-0.3-0.2-0.3c-0.1-0.2-0.1-0.3-0.2-0.5c0-0.3-0.2-0.5-0.4-0.8c-0.5-1-1-2.2-1.7-2.9c-1-1.2-2-2.7-3.2-3.8
			c-0.6-0.6-0.9-1.2-1.5-1.7c-0.6-0.5-0.6-0.3-1.4-1c-0.9-0.6-1.7-1.4-2.6-2l-0.1,0.1c0,0-0.1-0.1,0.1-0.1l-0.4-0.3l-0.1,0.1
			c-0.4-0.3-0.8-0.5-1.1-0.8c-0.1,0-0.3-0.1-0.4-0.2l-0.1-0.1l-0.1-0.1c-0.3-0.3-0.8-0.4-0.9-0.6c0.2,0,0.9,0.4,1,0.3
			c-1.3-0.8-2.1-1.1-2.6-1.1c-0.3-0.1-0.6-0.3-0.6-0.4c0.2-0.2-0.4-0.4-1.1-0.6c-0.6-0.2-0.8-0.1-0.7,0C42.1,4,42,4,41.9,3.9
			c-0.2-0.1-0.3-0.2-0.4-0.2l0.1,0c-0.2-0.1-0.3-0.1-0.4-0.2c-0.5-0.2-1.3-0.4-1.1-0.5c0.2-0.1-0.1-0.2-0.7-0.4
			c-0.5-0.1-1-0.4-1.5-0.3c0.6,0.2,1.3,0.5,1.1,0.7c-0.3,0-0.6-0.1-0.9-0.2c-0.2-0.2-0.3-0.3-0.6-0.5c-0.1-0.1-0.1-0.2-0.4-0.2
			c0-0.2-0.2-0.4-0.5-0.6c0.3,0,0.6,0,0.9,0.1c0.9,0.2,1.9,0.4,2.6,0.8c0.5,0.3,1.1,0.4,1.7,0.5c0.8,0.3,1.6,0.7,2.4,1
			c2,0.9,3.9,2,5.7,3.1l0,0c1,0.6,1.9,1.6,2.9,2.3c0.4,0.2,0.8,0.7,1.3,1.2c0.1,0.1,0.3,0.3,0.5,0.4c0.3,0.3,0.6,0.6,0.9,1
			c1,1.2,1.9,2.2,2.7,3.3c0-0.1,0-0.1-0.1-0.2c0,0,0,0,0,0.1l0,0.1c0.3,0.4,0.6,0.9,0.8,1.1l0.1,0.2l0.1,0.2c0.4,0.7,0.7,1.5,1.1,2
			c0.1,0.2,0.1,0.2,0.2,0.4c0.2,0.5,0.4,1,0.7,1.3c0,0.1,0.1,0.1,0.1,0.1c0,0,0,0,0-0.1c-0.3-1.2-0.8-2.4-1.6-3.6
			c-0.2-0.3-0.5-0.8-0.7-1.1c-1.4-2.6-3.2-4.4-5.2-6c-0.3-0.3-0.5-0.5-0.7-0.6c-0.3-0.2-0.5-0.4-0.7-0.5c-0.3-0.2-0.5-0.4-0.7-0.6
			c-0.4-0.3-0.7-0.6-1.1-0.9c-1.6-1.4-3.4-2.4-5.3-3.3c-0.9-0.4-1.8-0.7-2.7-1.2C41.9,2.3,41,2,41.3,2.4c0,0.1-0.5-0.1-0.9-0.2
			c-0.7-0.2-1.5-0.5-2.2-0.6c-0.1,0-0.2,0-0.3-0.1c-0.1-0.1-0.3-0.1-0.5-0.1c-0.1,0-0.2,0-0.3-0.1c-0.6-0.2-1.3-0.4-1.9-0.5
			c-0.2-0.1-0.5-0.1-0.8-0.2c0-0.1-0.2-0.1-0.5-0.2c-0.2,0-0.3-0.1-0.5-0.1l-0.1,0c0,0,0,0,0,0c0,0,0.1,0,0.2,0
			c-0.1-0.1-0.2-0.1-0.6-0.1l0,0l0,0c0-0.1-0.2-0.1-0.5-0.1c-0.1,0-0.3,0-0.3,0c-0.7,0.1-1.5,0.2-2.2,0.3c-0.4,0-0.9,0-1.3,0
			c-1.8,0.1-3.5,0.4-5.2,0.8l0,0l0,0l0,0c-0.8,0-1.8,0.4-2.6,0.6c-0.4,0-0.9,0.2-1.3,0.3c-0.3,0-0.6,0.2-1,0.3
			c-0.5,0.2-0.3,0.2-0.5,0.4c-0.2,0.1-0.4,0.2-0.4,0.3c-0.1,0.1-0.7,0.4-0.6,0.4c0.1,0.1,0.2,0.1,0.5,0c0.1,0.1,0.5,0,1-0.1l0.1-0.1
			l0,0c0,0-0.1,0-0.1,0.1c0.3,0.1,0.7,0.1,1.1,0.2c0,0.1,0.2,0.2,0.6,0.1c-0.2,0.2-0.5,0.3-0.7,0.5c-0.7,0.4-1.6,0.7-1.9,1.2
			c-0.9,0.7-2,1.3-2.7,2.1l0.1,0C14,8,13.3,8.4,13,8.8l0,0c-0.2,0.2-0.5,0.5-0.7,0.7l-0.1,0.1l-0.1,0.1c-0.4,0.4-0.8,0.8-1.2,1.2
			c-0.5,0.4-1.1,0.9-1.5,1.5c-0.6,0.8-1.7,2-2.3,3c-0.6,1-1.6,2-1.9,3.1l0.1,0c0,0.1,0,0.1,0,0.1l0,0c-0.6,1.1-1.2,2.3-1.7,3.5
			c-0.4,0.7-0.6,1.5-0.9,2.4c-0.1,0.2-0.1,0.4-0.2,0.6c-0.6,1.6-1,3.3-1.2,5C1.1,31,1,31.8,1.1,32.5c0,0.1,0,0.2,0,0.3
			C1,33,1,33.3,1,33.6c-0.2,0.8,0,1.7,0.1,2.6l0,0c0,0,0,0,0,0l0,0l0,0c0,0,0,0,0,0c-0.1,0.4,0,0.9,0.1,1.4l0,0
			c0,0.3,0.1,0.9,0.1,1.3c0,0.1,0,0.2,0,0.3c0,0.2,0,0.5,0.1,0.9c0.1,0.5,0.2,1.1,0.5,1.5l0,0c0.1,0.4,0.2,0.8,0.4,1.1
			c0.1,0.5,0.3,0.9,0.4,1.4c0.3,0.7,0.5,1.6,0.9,2.2c0.1,0.3,0.2,0.6,0.3,0.8c0.2,0.5,0.4,1,0.6,1.3c0.1,0.2,0.2,0.3,0.2,0.5
			c0.1,0.1,0.1,0.3,0.2,0.4c0.1,0.1,0.1,0.2,0.2,0.4c0.6,1.2,1.3,2.3,2.1,3.4c0.2,0.3,0.4,0.4,0.4,0.4c0.1,0,0-0.3-0.2-0.5
			c-0.6-0.9-1.3-2-1.8-2.9c-0.2-0.4-0.4-0.8-0.6-1.2c-0.6-0.8-0.8-1.8-1.2-2.6l0,0.1c-0.2-0.5-0.3-0.9-0.5-1.3
			c-0.2-0.4-0.3-0.9-0.5-1.3c-0.1-0.2-0.1-0.4-0.2-0.6c0,0,0,0.1,0.1,0.1l0,0c0.1,0.1,0.1,0.1,0.1,0.2c0-0.1,0-0.2-0.1-0.3
			c0,0,0,0,0,0l0,0c0,0,0,0,0,0c0-0.1,0-0.2,0-0.4c0-0.2-0.1-0.5-0.1-0.8l0,0l0,0l0,0c0-0.1,0-0.2,0-0.3c0.2,1,0.6,1.9,0.9,2.9
			c0.3,0.9,0.8,1.8,1.1,2.7c0.2,0.7,0.6,1.6,0.7,1.1c0-0.1,0.3,0.4,0.5,0.8c0.3,0.6,0.7,1.4,1.1,2c0,0.1,0.1,0.2,0.2,0.3
			c0.1,0.1,0.1,0.3,0.3,0.4c0.1,0.1,0.1,0.1,0.2,0.3c0.9,1.8,2,3.5,3.7,4.8c0.2,0.2,0.5,0.5,0.7,0.7c0.3,0.4,0.7,0.9,1.2,1.2
			c1.3,1.2,2.7,2.2,4.2,3.2l0,0l0,0l0,0c0.5,0.6,1.5,0.9,2.3,1.4c0.3,0.3,0.8,0.5,1.2,0.7c0.2,0.2,0.6,0.3,0.9,0.5
			c0.4,0.2,0.4,0,0.6,0.1c0.2,0.1,0.4,0.1,0.5,0.1c0.2,0,0.8,0.2,0.7,0.1c0-0.1-0.1-0.2-0.4-0.3c0-0.2-0.3-0.4-0.8-0.6l-0.1,0l0,0
			c0,0,0.1,0,0.1,0c-0.2-0.3-0.4-0.6-0.6-0.9c0.1-0.1,0-0.3-0.6-0.7c-0.1-0.1-0.2-0.3-0.2-0.4c0.5,0.2,1,0.4,1.4,0.6
			c0.5,0.2,0.7,0.1,0.8,0.1c0.1-0.1-0.4-0.3-0.7-0.5c-0.4-0.2-0.7-0.4-0.7-0.5c0-0.2,0.5,0.1,0.8,0.1c1,0.2,2.2,0.9,3.2,1
			c0.5,0.1,1.1,0.4,1.6,0.4l0,0l0,0l0,0c0.7,0.2,1.5,0.4,2.1,0.4c-0.1,0-0.1,0-0.2-0.1c0,0,0,0,0,0l0.1,0.1c0.7,0.1,1.5,0.3,2.1,0.2
			l-0.1,0l0.1,0l0,0c1.1,0,2.2,0.3,3.4,0.1c0.9-0.1,2.6-0.2,3.7-0.5c1.2-0.3,2.6-0.3,3.6-0.8l-0.1,0c0.1,0,0.1,0,0.1,0l0,0
			c2.2-0.6,4.5-1.5,6.5-2.6c1.3-0.6,2.7-1.4,3.9-2.4c0,0,0,0,0,0c0,0.1,0.2,0,0.4-0.2l0.1-0.1l0,0c0,0-0.1,0.1-0.1,0.1
			c0.1,0,0.3,0,0.4-0.1c-0.3,0.2-0.6,0.6-1,0.7l0,0c-0.3,0.2-0.8,0.5-1.1,0.7c-0.7,0.2-1.5,1-2.3,1.3c-0.2,0.1-0.4,0.2-0.7,0.3
			c-0.5,0.1-1,0.6-1.5,0.7c-0.3,0.1-0.4,0.2-0.6,0.3c-0.8,0.4-1.6,0.8-2.5,1l-0.1,0.1l-0.1,0c-2.6,0.6-4.4,1.3-6.4,1.8
			c3.8-0.4,7.4-1.5,10.8-3.2c0.2-0.1,0.5-0.2,0.7-0.4c0.6-0.2,1.3-0.6,1.9-1c0.4-0.2,0.7-0.4,1-0.6c0.3-0.2,0.8-0.5,1.1-0.7
			c0.1-0.1,0.2-0.2,0.3-0.2c0.3-0.1,0.7-0.5,1.1-0.8c0.1-0.1,0.2-0.2,0.3-0.3c0.1-0.1,0.3-0.2,0.4-0.3c0.2-0.2,0.3-0.3,0.5-0.5
			c0.1,0,0.2-0.1,0.5-0.3l0,0l0,0c0.1,0,0.2-0.1,0.4-0.3c0-0.1,0.2-0.2,0.2-0.2c1-1.2,1.9-2.6,2.8-4c0.3-0.5,0.6-1,0.8-1.5
			c0.2-0.3,0.5-0.7,0.6-1c0.1-0.1,0.2-0.3,0.3-0.4c0.6-1.7,1.4-3.4,1.6-5.1c0.2-0.7,0.6-1.6,0.5-2.2C63.3,40,63.6,38.7,63.5,37.8
			L63.5,37.8z M57.5,14L57.5,14C57.5,14,57.5,14,57.5,14L57.5,14z M18.1,3C18.1,3,18.1,3,18.1,3c0.1-0.1,0.2-0.1,0.2-0.2
			C18.2,3,18.1,3,18.1,3z M22,64.2C22,64.2,22,64.2,22,64.2c-0.1,0-0.2,0-0.2,0C21.9,64.2,22,64.2,22,64.2z M61.6,32.1L61.6,32.1
			L61.6,32.1L61.6,32.1z M61.4,36.3c0-0.7,0.1-1.4,0-2C61.5,34.9,61.4,35.6,61.4,36.3z M61.4,23.5c0,0-0.1-0.2-0.1-0.2
			c0-0.1,0-0.2-0.1-0.3C61.3,23.1,61.4,23.4,61.4,23.5z M61.2,27.4L61.2,27.4C61.2,27.4,61.2,27.5,61.2,27.4
			C61.1,27.5,61.2,27.4,61.2,27.4z M60.6,33.8L60.6,33.8L60.6,33.8L60.6,33.8z M59.9,31.4c0,0.1,0.1,0.2,0,0.3c0,0.3-0.1,0-0.1-0.2
			C59.8,31.5,59.8,31.5,59.9,31.4z M59.4,36.2L59.4,36.2L59.4,36.2C59.4,36.3,59.4,36.2,59.4,36.2z M52.9,52.9
			c0.1-0.1,0.1-0.2,0.2-0.3c0-0.5,0.6-1.3,1.1-2.2c-0.2,0.7-0.6,1.5-1.1,2.2c0,0,0,0.1,0,0.1C53.1,52.8,53,52.8,52.9,52.9z M13,52.4
			c0,0-0.1-0.1-0.1-0.1l0,0l0,0c-0.1-0.1,0,0-0.1-0.1l0,0c0,0,0,0,0.1,0.1c0,0,0,0,0,0L13,52.4C13,52.4,13,52.4,13,52.4z M7.6,50.8
			C7.6,50.8,7.5,50.8,7.6,50.8c0,0,0,0,0-0.1c0,0,0,0,0,0c0,0,0,0,0,0c-0.3-0.6-0.5-1.3-0.3-1.2c0.3,0.4,0.6,1,1,1.4
			c0.2,0.2,0.3,0.5,0.5,0.8c0.3,0.7,0.3,0.8,0.2,1c-0.2-0.3-0.4-0.6-0.7-1c-0.1-0.3-0.4-0.7-0.7-1.1C7.6,50.8,7.6,50.8,7.6,50.8z
			 M8.4,40.7L8.4,40.7L8.4,40.7L8.4,40.7z M8,42.6c-0.1-0.1-0.1-0.1-0.1-0.1c0,0.2-0.1,0.3-0.2,0.4c0-0.2,0-0.4,0.2-0.4
			c0-0.1,0-0.2,0-0.4C8,42.3,8,42.4,8,42.6z M7,48.1C7,48.1,7,48,7,48.1c0.1,0.1,0.2,0.3,0.3,0.4l0,0C7.2,48.4,7.2,48.2,7,48.1z
			 M6.6,45.1c-0.1-0.1-0.1-0.2-0.1-0.2c0-0.1,0-0.1-0.1-0.2C6.4,44.8,6.5,45,6.6,45.1z M5.6,41.1c0,0-0.1-0.1-0.1-0.1c0,0,0,0,0-0.1
			C5.5,41,5.5,41.1,5.6,41.1z M2.8,38.5c0,0,0-0.1,0-0.1l0,0C2.7,38.5,2.7,38.5,2.8,38.5z M3.6,41.5c-0.1,0,0,0.2,0,0.5
			c-0.1-0.1-0.1-0.3-0.2-0.5C3.5,41.3,3.5,41.4,3.6,41.5z M5.1,39.7c-0.1-0.1-0.1-0.3-0.2-0.6C4.9,39.4,5,39.6,5.1,39.7z M5.3,41.4
			c0-0.2,0-0.4,0-0.4C5.3,41,5.3,41.2,5.3,41.4z M2.3,31.6L2.3,31.6L2.3,31.6L2.3,31.6C2.3,31.6,2.3,31.6,2.3,31.6L2.3,31.6z
			 M2.2,32.9L2.2,32.9C2.1,32.9,2.1,33,2.2,32.9c0,0.2,0,0.4-0.1,0.5c0,0,0,0.1,0,0.1c0-0.1,0-0.1,0-0.1c0,0,0,0,0-0.1
			C2.1,33.2,2.1,33.1,2.2,32.9C2.1,32.9,2.2,32.9,2.2,32.9z M1.6,37.9C1.7,37.9,1.7,37.8,1.6,37.9c0.1,0.1,0.1,0.1,0.1,0.2
			C1.7,38,1.7,37.9,1.6,37.9c-0.1,0-0.2-0.2-0.3-0.3C1.5,37.6,1.6,37.7,1.6,37.9z M5.7,46.3c0.1,0.2,0.1,0.3,0.2,0.4
			c0,0.2,0.1,0.3,0.2,0.4l0-0.1c0.1,0.2,0.1,0.3,0.2,0.4c0.2,0.5,0.7,1.2,0.4,1.1c-0.1,0-0.1,0-0.1,0.1c-0.1-0.2-0.2-0.3-0.3-0.5
			l0,0c0-0.2-0.3-0.6-0.5-1c0-0.3-0.1-0.6-0.3-0.9C5.5,46.4,5.6,46.4,5.7,46.3z M13.6,11.4C13.6,11.4,13.6,11.4,13.6,11.4
			C13.6,11.4,13.6,11.4,13.6,11.4C13.6,11.4,13.6,11.4,13.6,11.4z M34.7,4.9L34.7,4.9c0,0.1-0.2,0-0.2,0.1C34.5,5,34.7,5,34.7,4.9z
			 M32.6,4.7C32.5,4.6,32.6,4.6,32.6,4.7c-0.1,0-0.2,0-0.2,0l0.1,0c0.1,0,0.4,0,0.6,0C32.9,4.6,32.7,4.6,32.6,4.7z M33,5L33,5
			c0,0,0,0-0.1,0c0,0,0,0,0,0l-0.1,0c0,0,0,0-0.1,0c0,0,0.1,0,0.1,0l0,0l0,0C33,5,33,5,33,5z M55.2,44.8c0-0.1,0.1-0.1,0.1-0.2l0,0
			C55.3,44.7,55.2,44.9,55.2,44.8z M55.3,45.1L55.3,45.1L55.3,45.1C55.3,45.1,55.3,45.1,55.3,45.1C55.3,45.1,55.3,45.1,55.3,45.1
			C55.3,45.1,55.3,45,55.3,45.1C55.3,45,55.3,45,55.3,45.1L55.3,45.1z M58.5,36c0,0.1,0,0.1,0,0.3C58.5,36.1,58.4,36.1,58.5,36
			C58.5,35.9,58.5,36,58.5,36z M57.9,20.3C57.9,20.3,57.9,20.3,57.9,20.3L57.9,20.3C57.9,20.3,57.9,20.3,57.9,20.3
			C57.9,20.3,57.9,20.2,57.9,20.3c-0.1-0.2-0.1-0.2-0.1-0.2C57.8,20.1,57.9,20.2,57.9,20.3z M57.8,17.2
			C57.8,17.3,57.8,17.3,57.8,17.2C57.8,17.3,57.8,17.3,57.8,17.2C57.8,17.2,57.8,17.2,57.8,17.2L57.8,17.2
			C57.7,17.2,57.7,17.2,57.8,17.2z M57.3,16.9L57.3,16.9C57.3,16.9,57.3,16.9,57.3,16.9C57.3,16.9,57.3,16.9,57.3,16.9z M48,8.6
			c-0.2-0.1-0.4-0.2-0.6-0.3C47.5,8.3,47.7,8.4,48,8.6z M46.1,7.7c0,0,0.1,0,0.1,0c0,0,0,0,0.1,0C46.2,7.8,46.2,7.7,46.1,7.7z
			 M46.3,7.6c0-0.1-0.1-0.2-0.3-0.3C46.2,7.4,46.4,7.5,46.3,7.6z M42.8,5.6c0.1,0,0.1,0.1,0.2,0.1c-0.1,0-0.3-0.1-0.4-0.1
			C42.7,5.6,42.7,5.6,42.8,5.6z M39.6,3.7c0.1,0,0.3,0.1,0.5,0.1c0,0,0,0,0.1,0C40,3.8,39.8,3.8,39.6,3.7L39.6,3.7z M33.7,0.5
			c0,0,0,0-0.1,0l0,0L33.7,0.5z M28.4,0.6C28.4,0.6,28.4,0.6,28.4,0.6c0,0-0.1,0-0.2,0L28.4,0.6z M7.2,16c0,0,0,0.1,0,0.1
			c0,0,0,0,0,0C7.1,16.1,7.1,16.1,7.2,16z M7.1,16.2C7.1,16.2,7.1,16.2,7.1,16.2c0,0-0.1,0-0.1,0.1C7,16.2,7.1,16.2,7.1,16.2z
			 M1.3,35.3C1.2,35.4,1.2,35.4,1.3,35.3C1.2,35.4,1.2,35.4,1.3,35.3C1.2,35.4,1.2,35.3,1.3,35.3z M2,41.1C2,41.1,2,41.1,2,41.1
			L2,41.1C2,41.1,2,41.1,2,41.1z M5.2,47.5c-0.1-0.2-0.2-0.4-0.2-0.6c0,0,0.1,0.1,0.1,0.1c0,0.2,0.1,0.4,0.2,0.6
			C5.3,47.5,5.3,47.5,5.2,47.5z M7.4,51.5c-0.5-0.8-1-1.6-1.3-2.4C6.1,49,6,48.9,6,48.8c0.1,0.2,0.2,0.3,0.2,0.4
			c0.1,0.2,0.3,0.6,0.5,0.8c0,0.1,0.1,0.1,0.1,0.1c0.7,0.9,1.2,1.8,2.1,2.6c0,0,0,0-0.1,0.1C8.6,53.1,8,52.3,7.4,51.5z M9.2,45.5
			c0.2,0,0.2-0.2,0.1-0.6c0,0,0,0,0,0c0.1,0.3,0.1,0.5,0.1,0.7C9.6,46,9.4,45.7,9.2,45.5z M9.6,51.1C9.6,51.1,9.5,51,9.6,51.1
			c0.1,0.1,0.1,0,0.1,0.1C9.7,51.2,9.6,51.2,9.6,51.1z M11.7,51.1L11.7,51.1c0.1,0,0.2,0.1,0.2,0.1C11.8,51.2,11.7,51.1,11.7,51.1z
			 M12.6,52.5c0.1,0.1,0.3,0.3,0.3,0.3c0,0.1,0,0,0,0c0,0,0.1,0.1,0.1,0.1l-0.1,0C12.9,52.8,12.7,52.7,12.6,52.5z M13,58.6
			C13,58.6,13,58.6,13,58.6c0,0,0.1,0.1,0.2,0.1L13,58.6z M14.3,58C14.3,58,14.3,58,14.3,58c-0.2-0.3-0.3-0.5-0.5-0.7l-0.1,0
			c0,0,0,0,0,0c0,0,0,0,0.1,0C14.2,57.7,14.3,57.9,14.3,58c0,0,0.1,0,0.1,0.1C14.3,58.1,14.3,58.1,14.3,58z M16.5,54.3
			c0.1,0,0.2,0.1,0.2,0.1c0,0,0,0.1,0,0.1C16.7,54.4,16.6,54.4,16.5,54.3z M18.1,58L18.1,58L18.1,58C18.1,57.9,18.1,58,18.1,58z
			 M21.4,58.2c0.1,0.1,0.2,0.1,0.3,0.1C21.6,58.3,21.6,58.3,21.4,58.2z M23.1,59.1C23.1,59.1,23.1,59.1,23.1,59.1L23.1,59.1
			L23.1,59.1C23,59.1,23,59.1,23.1,59.1c-0.2,0.1-0.4,0-0.7-0.1c-0.1,0-0.3-0.1-0.4-0.2c0,0,0,0,0,0c-0.1-0.1-0.1-0.1-0.2-0.1
			c0.1,0,0.2,0.1,0.2,0.1c0.1,0.1,0.3,0.1,0.4,0.2C22.6,59,22.8,59,23.1,59.1C23,59.1,23,59.1,23.1,59.1C23.1,59.1,23,59,23.1,59.1
			c-0.1-0.1-0.2-0.2-0.3-0.3c0,0,0,0,0,0c0,0,0,0,0,0c0,0-0.1,0-0.1-0.1c-0.3-0.2-0.6-0.4-0.8-0.6l0,0c-0.3-0.2-0.7-0.4-0.7-0.4
			s0.3,0.2,0.6,0.4c0.1,0,0.1,0,0.1,0c0.4,0.2,0.7,0.5,0.8,0.6c0,0,0.1,0.1,0.1,0.1c0,0,0,0-0.1,0c0,0,0,0,0,0
			C23,58.9,23.2,59,23.1,59.1C23.1,59.1,23.1,59.1,23.1,59.1z M23.9,59.2l-0.3-0.1C23.6,59.1,23.8,59.2,23.9,59.2
			C23.9,59.2,23.9,59.2,23.9,59.2z M25.7,61.5L25.7,61.5L25.7,61.5L25.7,61.5z M27.4,60.7C27.4,60.7,27.3,60.7,27.4,60.7
			C27.3,60.7,27.4,60.7,27.4,60.7C27.4,60.7,27.4,60.7,27.4,60.7z M29.7,61.3L29.7,61.3L29.7,61.3L29.7,61.3z M31.3,61.5
			c-0.2-0.1-0.3-0.2-0.5-0.2c0.1,0,0.4,0,0.6,0C31.5,61.4,31.6,61.4,31.3,61.5z M33.7,59.5c0,0,0.1,0,0.2,0.1c0,0,0,0,0.1,0l0,0
			c-0.1,0-0.1,0-0.1,0C33.8,59.6,33.7,59.6,33.7,59.5C33.7,59.6,33.7,59.5,33.7,59.5z M34,60C34.1,60,34.1,60,34,60
			c0,0-0.1,0-0.2,0.1C33.9,60.1,34,60,34,60z M39.1,62.6C39.1,62.6,39.1,62.6,39.1,62.6c0,0-0.1,0.1-0.1,0.1
			C39,62.7,39,62.7,39.1,62.6C39.1,62.6,39.1,62.6,39.1,62.6c0,0,0.1,0,0.2,0.1C39.2,62.7,39.1,62.6,39.1,62.6z M41.7,59.6
			c-0.1,0-0.3,0.1-0.3,0c-0.1,0,0,0-0.1,0c0,0,0,0,0,0c0,0,0,0,0.1,0l0,0l0.2,0C41.6,59.6,41.7,59.6,41.7,59.6
			C41.7,59.5,41.8,59.5,41.7,59.6L41.7,59.6C41.8,59.5,41.7,59.5,41.7,59.6z M47.8,56.7c-0.4,0.2-0.8,0.3-0.9,0.3
			c-0.2-0.1,0.2-0.3,0.6-0.5c0.2-0.1,0.3-0.2,0.2-0.3c-0.2,0.1-0.6,0.3-0.8,0.3c0.3-0.2,0.7-0.4,1-0.6c-0.1,0-0.1,0-0.1,0
			c0,0,0,0,0,0c0,0,0,0,0,0c0,0,0,0,0,0c0.1,0,0.1,0,0.1,0c0,0,0.1-0.1,0.2-0.1c0.4-0.2,0.9-0.6,1.3-0.8c0.6-0.3,1.1-0.8,1.6-1.3
			l0,0l0,0c0,0,0,0,0,0c0.4-0.5-0.1-0.1-0.4,0.1l-0.1,0.1l-0.1,0c-0.2,0.1-0.7,0.5-0.9,0.5c1-0.8,2.1-1.7,3-2.7
			c0.1-0.1,0.1-0.1,0.2-0.2c0,0,0,0,0,0c-0.1,0.1,0,0,0.1-0.1c0.1-0.1,0.1-0.2,0.1-0.2c0,0,0,0,0,0c0.2-0.2,0.3-0.3,0.3-0.5
			c0-0.2,0.1-0.3,0.2-0.5c0.2-0.1,0.6-0.5,0.8-0.4c-0.1,0.2-0.2,0.4-0.2,0.4c-0.5,0.7-0.7,1.1-0.9,1.6c-0.3,0.5-0.4,0.8-0.8,1.4
			c-0.3,0.3-0.5,0.6-0.7,0.8c-0.1,0-0.1,0.1-0.2,0.1C50.3,55.3,49.1,56,47.8,56.7z M49.2,56.5c0,0,0.1-0.1,0.1-0.1
			c0,0,0.1,0,0.1-0.1c0.1,0,0.1-0.1,0.2-0.1c-0.1,0-0.1,0-0.2,0.1C49.4,56.4,49.3,56.5,49.2,56.5z"/>
		<path class="st3" d="M8.9,12.3c-0.1,0.3-0.9,1.2-1,1.6C9.1,12.5,9.2,12.5,8.9,12.3z"/>
		<path class="st3" d="M1,29.1c0.1-0.4,0.2-0.9,0.3-1.3C1.7,27.1,1.7,26,2,25.2c0.1-0.2,0.2-0.5,0.2-0.7c0.2-0.4,0.3-1.1,0.6-1.6
			c0.1-0.2,0.2-0.4,0.3-0.6c0.3-0.9,0.6-1.7,1.1-2.4l0.1-0.1l0.1-0.1c0.8-1.3,1.4-2.5,2-3.6l0.5-0.8C7,15.1,7.1,14.8,7,14.8
			c0,0,0,0,0,0c0.2-0.3,0.4-0.6,0.5-0.9c-2.1,2.6-3.8,5.6-5,8.7c0-0.1-0.1,0.1-0.2,0.3c-0.2,0.6-0.4,1.2-0.6,1.8
			c-0.2,0.5-0.4,1.2-0.5,1.8C1.2,27,1.1,27.4,1,27.8c-0.1,0.4-0.2,0.9-0.3,1.2c0,0.2,0,0.3-0.1,0.4c-0.1,0.3-0.2,0.8-0.2,1.3
			c0,0.1,0,0.3-0.1,0.4c0,0.2-0.1,0.4-0.1,0.5c0,0.5,0,1,0,1.5c0,0,0,0.1,0,0.1c0,0,0,0,0.1-0.1c0-0.1,0.1-0.2,0.1-0.4l0,0
			c0.1-0.2,0.1-0.6,0.1-0.9c0-0.1,0-0.2,0-0.3c0.1-0.2,0.1-0.5,0.2-0.9c0,0.1-0.1,0.2-0.1,0.3c0,0,0,0.1,0,0.1c0,0,0,0,0,0
			c0,0,0-0.1,0-0.1c0-0.1,0.1-0.2,0.1-0.3C0.9,30.3,0.8,29.5,1,29.1L1,29.1z"/>
		<path class="st3" d="M56.7,11.9c-0.7-1-1.4-1.5-2-2C55.4,10.4,56.1,11.5,56.7,11.9z"/>
		<path class="st3" d="M60.2,16.9c0.2,0.4,0.4,0.8,0.7,1.2c0.1,0.2,0.2,0.4,0.3,0.5c0.2,0.2,0.1-0.1,0-0.3c-0.4-0.8-0.8-1.8-1.4-2.4
			c-0.1-0.1-0.1-0.2-0.2-0.3c-0.2-0.3-0.4-0.5-0.4-0.5c-0.1,0,0.1,0.2,0.2,0.4C59.6,16,59.9,16.5,60.2,16.9z"/>
		<path class="st3" d="M11.5,9.8c-0.1,0-0.2,0.1-0.3,0.2c-0.1,0.1-0.2,0.2-0.3,0.4c0.1-0.1,0.2-0.2,0.3-0.2
			C11.4,10,11.5,9.9,11.5,9.8z"/>
		<path class="st3" d="M10.1,11.2c0-0.1,0-0.1,0.1-0.2c-0.1,0.1-0.2,0.2-0.3,0.2c0,0-0.1,0.2,0,0.1C9.9,11.4,10,11.3,10.1,11.2z"/>
		<path class="st3" d="M61.1,48.2c-0.1,0.1-0.1-0.1-0.2,0.3c0,0.1,0,0.2,0,0.2c0.1-0.1,0.1-0.2,0.2-0.3
			C61.2,48.2,61.2,48.1,61.1,48.2z"/>
		<path class="st3" d="M63.6,27.4c0.1,0.1,0-0.4,0-0.6l-0.3-1.4c-0.1-0.3-0.2-0.2-0.2,0l0.3,1.4C63.5,27.1,63.6,27.4,63.6,27.4z"/>
		<polygon class="st3" points="49,7.3 49.1,7.5 49.1,7.4 		"/>
	</g>
	<path class="st1" d="M35.2,53.3V34.3h6.4l1-7.4h-7.3v-4.7c0-2.1,0.6-3.6,3.7-3.6l3.9,0v-6.6c-0.7-0.1-3-0.3-5.7-0.3
		c-5.6,0-9.5,3.4-9.5,9.7V27h-6.4v7.4h6.4v18.9H35.2L35.2,53.3z"/>
</g>
<g id="hover_effect">
</g>
</svg>
