<?xml version="1.0" encoding="utf-8"?>
<!-- Generator: Adobe Illustrator 25.0.1, SVG Export Plug-In . SVG Version: 6.00 Build 0)  -->
<svg version="1.1" xmlns="http://www.w3.org/2000/svg" xmlns:xlink="http://www.w3.org/1999/xlink" x="0px" y="0px"
	 viewBox="0 0 64.7 65.2" style="enable-background:new 0 0 64.7 65.2;" xml:space="preserve">
<style type="text/css">
	.st0{fill:#151211;}
	.st1{fill:#FFFFFF;}
	.st2{fill:none;stroke:#33FF98;stroke-width:3;stroke-miterlimit:10;}
	.st3{fill-rule:evenodd;clip-rule:evenodd;fill:#151211;}
	.st4{fill-rule:evenodd;clip-rule:evenodd;fill:#FFFFFF;}
	.st5{fill:#D8D8D8;}
	.st6{fill:#858585;stroke:#1D1D1B;stroke-width:8;stroke-linecap:round;stroke-linejoin:round;stroke-miterlimit:10;}
	.st7{fill:#6F6F6E;stroke:#1D1D1B;stroke-width:8;stroke-linecap:round;stroke-linejoin:round;stroke-miterlimit:10;}
	.st8{fill:#B0B0B0;stroke:#1D1D1B;stroke-width:6;stroke-linecap:round;stroke-linejoin:round;stroke-miterlimit:10;}
	.st9{fill:#3C3C3B;stroke:#1D1D1B;stroke-width:6;stroke-linecap:round;stroke-linejoin:round;stroke-miterlimit:10;}
	.st10{fill:#33FF99;stroke:#1D1D1B;stroke-width:8;stroke-linejoin:round;stroke-miterlimit:10;}
	.st11{fill:#33FF98;stroke:#151211;stroke-width:6;stroke-linejoin:round;stroke-miterlimit:10;}
	.st12{fill:#575756;stroke:#1D1D1B;stroke-width:6;stroke-linecap:round;stroke-linejoin:round;stroke-miterlimit:10;}
	.st13{fill:#4A4A49;stroke:#1D1D1B;stroke-width:6;stroke-linecap:round;stroke-linejoin:round;stroke-miterlimit:10;}
	.st14{fill:#9D9D9C;}
	.st15{opacity:0.35;fill:#444444;}
	.st16{fill:#575756;stroke:#1D1D1B;stroke-width:5;stroke-linecap:round;stroke-linejoin:round;stroke-miterlimit:10;}
	.st17{fill:none;stroke:#B0B0B0;stroke-width:2;stroke-linecap:round;stroke-linejoin:round;}
	.st18{fill:none;stroke:#B0B0B0;stroke-width:2;stroke-linecap:round;stroke-linejoin:round;stroke-dasharray:4.9835,4.9835;}
	.st19{fill:none;stroke:#1D1D1B;stroke-width:8;stroke-linecap:round;stroke-linejoin:round;stroke-miterlimit:10;}
	.st20{fill:#1D1D1B;}
</style>
<g id="grid_1200">
</g>
<g id="Vrstva_4">
</g>
<g id="Vrstva_5">
</g>
<g id="grafika">
</g>
<g id="VÝBĚR">
</g>
<g id="BARVY">
</g>
<g id="ZVOLENO">
</g>
<g id="FORMÁTY">
</g>
<g id="TLOUŠŤKA">
</g>
<g id="POVRCHY">
</g>
<g id="Menu">
</g>
<g id="Mapa_obrys">
	<g>
		<path class="st3" d="M35.3,64.1c0.3-0.2,1.5-0.2,1.9-0.4C35.3,63.9,35.3,63.8,35.3,64.1z"/>
		<path class="st3" d="M1.2,30.6c-0.2,1.2-0.1,2.1,0,2.8C1.1,32.6,1.3,31.4,1.2,30.6z"/>
		<path class="st3" d="M31.7,64.1c0.1,0,0.2,0.1,0.3,0.1c0.1,0,0.3,0,0.5,0c-0.2,0-0.3-0.1-0.4-0.1C31.9,64,31.7,64,31.7,64.1z"/>
		<path class="st3" d="M33.6,64.1c-0.1,0-0.1,0-0.2,0.1c0.1,0,0.3,0,0.4,0c0,0,0.2-0.1,0.1-0.1C33.9,64.1,33.7,64.1,33.6,64.1z"/>
		<path class="st3" d="M36.7,0.8C37.8,1,39,1.3,40.1,1.5c0.4,0.1,0.8,0.3,1.3,0.4c0.9,0.1,1.8,0.7,2.7,1L44,2.8
			c0.5,0.2,0.8,0.4,1.3,0.6c0.4,0.1,0.9,0.5,1.3,0.6c0.7,0.4,1.4,0.7,2,1.2c0.3,0.2,0.6,0.4,0.8,0.5C50,6,50.5,6.4,51,6.8
			c0.2,0.1,0.6,0.4,0.7,0.5c0.2,0.1,0.3,0.2,0.4,0.2c-0.2-0.3-0.6-0.6-1-0.9l-1.9-1.3c-0.6-0.4-1.1-0.8-1.7-1
			c-0.4-0.2-0.8-0.5-1.3-0.7c-0.7-0.3-1.5-0.8-2.2-1c-0.3-0.1-0.6-0.2-0.8-0.3c-0.5-0.2-1-0.5-1.4-0.5c-0.2-0.1-0.4-0.1-0.5-0.2
			c-0.1-0.1-0.3-0.1-0.4-0.1c-0.1,0-0.3-0.1-0.4-0.1C39.3,1,38,0.7,36.7,0.5c-0.3,0-0.5,0-0.6,0C36.2,0.6,36.4,0.7,36.7,0.8z
			 M48.8,5.2C48.8,5.2,48.8,5.2,48.8,5.2c0.1,0.1,0.3,0.2,0.4,0.3C49.1,5.4,48.9,5.3,48.8,5.2C48.8,5.2,48.8,5.2,48.8,5.2L48.8,5.2z
			"/>
		<path class="st3" d="M59.4,51.3C59.4,51.3,59.4,51.3,59.4,51.3c0,0,0,0.1-0.1,0.1L59.4,51.3z"/>
		<path class="st3" d="M63.7,37.8C63.7,37.8,63.7,37.8,63.7,37.8c0.1-0.9,0.3-1.7,0.2-2.6c0,0.1-0.1,0.1-0.1,0.2c0-0.2,0-0.4,0-0.5
			l0-0.1l0-0.2c0-0.7,0-1.4,0-2.1c0-0.1,0-0.2-0.1-0.4c-0.2-2-0.5-4.1-1.1-6c-0.1-0.1-0.1-0.3-0.2-0.4c-0.5-1.7-1-3.2-1.7-4.9
			c-0.1-0.1-0.2-0.3-0.2-0.3c-0.1-0.2-0.1-0.3-0.2-0.5c0-0.3-0.2-0.5-0.4-0.8c-0.5-1-1-2.2-1.7-2.9c-1-1.2-2-2.7-3.2-3.8
			c-0.6-0.6-0.9-1.2-1.5-1.7c-0.6-0.5-0.6-0.3-1.4-1c-0.9-0.6-1.7-1.4-2.6-2l-0.1,0.1c0,0-0.1-0.1,0.1-0.1l-0.4-0.3l-0.1,0.1
			c-0.4-0.3-0.8-0.5-1.1-0.8c-0.1,0-0.3-0.1-0.4-0.2l-0.1-0.1l-0.1-0.1c-0.3-0.3-0.8-0.4-0.9-0.6c0.2,0,0.9,0.4,1,0.3
			c-1.3-0.8-2.1-1.1-2.6-1.1c-0.3-0.1-0.6-0.3-0.6-0.4c0.2-0.2-0.4-0.4-1.1-0.6c-0.6-0.2-0.8-0.1-0.7,0C42.3,4.1,42.2,4,42.1,4
			c-0.2-0.1-0.3-0.2-0.4-0.2l0.1,0c-0.2-0.1-0.3-0.1-0.4-0.2c-0.5-0.2-1.3-0.4-1.1-0.5c0.2-0.1-0.1-0.2-0.7-0.4
			c-0.5-0.1-1-0.4-1.5-0.3c0.6,0.2,1.3,0.5,1.1,0.7c-0.3,0-0.6-0.1-0.9-0.2c-0.2-0.2-0.3-0.3-0.6-0.5c-0.1-0.1-0.1-0.2-0.4-0.2
			c0-0.2-0.2-0.4-0.5-0.6c0.3,0,0.6,0,0.9,0.1c0.9,0.2,1.9,0.4,2.6,0.8C40.8,2.7,41.4,2.9,42,3c0.8,0.3,1.6,0.7,2.4,1
			c2,0.9,3.9,2,5.7,3.1l0,0c1,0.6,1.9,1.6,2.9,2.3c0.4,0.2,0.8,0.7,1.3,1.2c0.1,0.1,0.3,0.3,0.5,0.4c0.3,0.3,0.6,0.6,0.9,1
			c1,1.2,1.9,2.2,2.7,3.3c0-0.1,0-0.1-0.1-0.2c0,0,0,0,0,0.1l0,0.1c0.3,0.4,0.6,0.9,0.8,1.1l0.1,0.2l0.1,0.2c0.4,0.7,0.7,1.5,1.1,2
			c0.1,0.2,0.1,0.2,0.2,0.4c0.2,0.5,0.4,1,0.7,1.3c0,0.1,0.1,0.1,0.1,0.1c0,0,0,0,0-0.1c-0.3-1.2-0.8-2.4-1.6-3.6
			c-0.2-0.3-0.5-0.8-0.7-1.1c-1.4-2.6-3.2-4.4-5.2-6c-0.3-0.3-0.5-0.5-0.7-0.6c-0.3-0.2-0.5-0.4-0.7-0.5c-0.3-0.2-0.5-0.4-0.7-0.6
			c-0.4-0.3-0.7-0.6-1.1-0.9c-1.6-1.4-3.4-2.4-5.3-3.3c-0.9-0.4-1.8-0.7-2.7-1.2c-0.7-0.4-1.5-0.7-1.3-0.3c0,0.1-0.5-0.1-0.9-0.2
			c-0.7-0.2-1.5-0.5-2.2-0.6c-0.1,0-0.2,0-0.3-0.1c-0.1-0.1-0.3-0.1-0.5-0.1c-0.1,0-0.2,0-0.3-0.1C36.6,1.2,36,1,35.3,0.8
			c-0.2-0.1-0.5-0.1-0.8-0.2c0-0.1-0.2-0.1-0.5-0.2c-0.2,0-0.3-0.1-0.5-0.1l-0.1,0c0,0,0,0,0,0c0,0,0.1,0,0.2,0
			c-0.1-0.1-0.2-0.1-0.6-0.1l0,0l0,0c0-0.1-0.2-0.1-0.5-0.1c-0.1,0-0.3,0-0.3,0c-0.7,0.1-1.5,0.2-2.2,0.3c-0.4,0-0.9,0-1.3,0
			c-1.8,0.1-3.5,0.4-5.2,0.8l0,0l0,0l0,0c-0.8,0-1.8,0.4-2.6,0.6c-0.4,0-0.9,0.2-1.3,0.3c-0.3,0-0.6,0.2-1,0.3
			c-0.5,0.2-0.3,0.2-0.5,0.4c-0.2,0.1-0.4,0.2-0.4,0.3c-0.1,0.1-0.7,0.4-0.6,0.4c0.1,0.1,0.2,0.1,0.5,0c0.1,0.1,0.5,0,1-0.1l0.1-0.1
			l0,0c0,0-0.1,0-0.1,0.1c0.3,0.1,0.7,0.1,1.1,0.2c0,0.1,0.2,0.2,0.6,0.1c-0.2,0.2-0.5,0.3-0.7,0.5c-0.7,0.4-1.6,0.7-1.9,1.2
			c-0.9,0.7-2,1.3-2.7,2.1l0.1,0c-0.4,0.5-1.1,0.9-1.4,1.3l0,0C13,9,12.7,9.3,12.5,9.5l-0.1,0.1l-0.1,0.1c-0.4,0.4-0.8,0.8-1.2,1.2
			c-0.5,0.4-1.1,0.9-1.5,1.5c-0.6,0.8-1.7,2-2.3,3c-0.6,1-1.6,2-1.9,3.1l0.1,0c0,0.1,0,0.1,0,0.1l0,0c-0.6,1.1-1.2,2.3-1.7,3.5
			c-0.4,0.7-0.6,1.5-0.9,2.4c-0.1,0.2-0.1,0.4-0.2,0.6c-0.6,1.6-1,3.3-1.2,5c-0.1,0.9-0.2,1.7-0.1,2.5c0,0.1,0,0.2,0,0.3
			c-0.1,0.2-0.1,0.5-0.1,0.8c-0.2,0.8,0,1.7,0.1,2.6l0,0c0,0,0,0,0,0l0,0l0,0c0,0,0,0,0,0c-0.1,0.4,0,0.9,0.1,1.4l0,0
			c0,0.3,0.1,0.9,0.1,1.3c0,0.1,0,0.2,0,0.3c0,0.2,0,0.5,0.1,0.9c0.1,0.5,0.2,1.1,0.5,1.5l0,0c0.1,0.4,0.2,0.8,0.4,1.1
			c0.1,0.5,0.3,0.9,0.4,1.4c0.3,0.7,0.5,1.6,0.9,2.2C3.8,46.5,3.9,46.8,4,47c0.2,0.5,0.4,1,0.6,1.3c0.1,0.2,0.2,0.3,0.2,0.5
			C5,49,5.1,49.1,5.1,49.2c0.1,0.1,0.1,0.2,0.2,0.4c0.6,1.2,1.3,2.3,2.1,3.4c0.2,0.3,0.4,0.4,0.4,0.4c0.1,0,0-0.3-0.2-0.5
			c-0.6-0.9-1.3-2-1.8-2.9c-0.2-0.4-0.4-0.8-0.6-1.2c-0.6-0.8-0.8-1.8-1.2-2.6l0,0.1c-0.2-0.5-0.3-0.9-0.5-1.3
			c-0.2-0.4-0.3-0.9-0.5-1.3c-0.1-0.2-0.1-0.4-0.2-0.6c0,0,0,0.1,0.1,0.1l0,0c0.1,0.1,0.1,0.1,0.1,0.2c0-0.1,0-0.2-0.1-0.3
			c0,0,0,0,0,0l0,0c0,0,0,0,0,0c0-0.1,0-0.2,0-0.4c0-0.2-0.1-0.5-0.1-0.8l0,0l0,0l0,0c0-0.1,0-0.2,0-0.3c0.2,1,0.6,1.9,0.9,2.9
			c0.3,0.9,0.8,1.8,1.1,2.7c0.2,0.7,0.6,1.6,0.7,1.1c0-0.1,0.3,0.4,0.5,0.8c0.3,0.6,0.7,1.4,1.1,2c0,0.1,0.1,0.2,0.2,0.3
			c0.1,0.1,0.1,0.3,0.3,0.4c0.1,0.1,0.1,0.1,0.2,0.3c0.9,1.8,2,3.5,3.7,4.8c0.2,0.2,0.5,0.5,0.7,0.7c0.3,0.4,0.7,0.9,1.2,1.2
			c1.3,1.2,2.7,2.2,4.2,3.2l0,0l0,0l0,0c0.5,0.6,1.5,0.9,2.3,1.4c0.3,0.3,0.8,0.5,1.2,0.7c0.2,0.2,0.6,0.3,0.9,0.5
			c0.4,0.2,0.4,0,0.6,0.1c0.2,0.1,0.4,0.1,0.5,0.1c0.2,0,0.8,0.2,0.7,0.1c0-0.1-0.1-0.2-0.4-0.3c0-0.2-0.3-0.4-0.8-0.6l-0.1,0l0,0
			c0,0,0.1,0,0.1,0c-0.2-0.3-0.4-0.6-0.6-0.9c0.1-0.1,0-0.3-0.6-0.7c-0.1-0.1-0.2-0.3-0.2-0.4c0.5,0.2,1,0.4,1.4,0.6
			c0.5,0.2,0.7,0.1,0.8,0.1c0.1-0.1-0.4-0.3-0.7-0.5c-0.4-0.2-0.7-0.4-0.7-0.5c0-0.2,0.5,0.1,0.8,0.1c1,0.2,2.2,0.9,3.2,1
			c0.5,0.1,1.1,0.4,1.6,0.4l0,0l0,0l0,0c0.7,0.2,1.5,0.4,2.1,0.4c-0.1,0-0.1,0-0.2-0.1c0,0,0,0,0,0l0.1,0.1c0.7,0.1,1.5,0.3,2.1,0.2
			l-0.1,0l0.1,0l0,0c1.1,0,2.2,0.3,3.4,0.1c0.9-0.1,2.6-0.2,3.7-0.5c1.2-0.3,2.6-0.3,3.6-0.8l-0.1,0c0.1,0,0.1,0,0.1,0l0,0
			c2.2-0.6,4.5-1.5,6.5-2.6c1.3-0.6,2.7-1.4,3.9-2.4c0,0,0,0,0,0c0,0.1,0.2,0,0.4-0.2l0.1-0.1l0,0c0,0-0.1,0.1-0.1,0.1
			c0.1,0,0.3,0,0.4-0.1c-0.3,0.2-0.6,0.6-1,0.7l0,0c-0.3,0.2-0.8,0.5-1.1,0.7c-0.7,0.2-1.5,1-2.3,1.3c-0.2,0.1-0.4,0.2-0.7,0.3
			c-0.5,0.1-1,0.6-1.5,0.7c-0.3,0.1-0.4,0.2-0.6,0.3c-0.8,0.4-1.6,0.8-2.5,1l-0.1,0.1l-0.1,0c-2.6,0.6-4.4,1.3-6.4,1.8
			c3.8-0.4,7.4-1.5,10.8-3.2c0.2-0.1,0.5-0.2,0.7-0.4c0.6-0.2,1.3-0.6,1.9-1c0.4-0.2,0.7-0.4,1-0.6c0.3-0.2,0.8-0.5,1.1-0.7
			c0.1-0.1,0.2-0.2,0.3-0.2c0.3-0.1,0.7-0.5,1.1-0.8c0.1-0.1,0.2-0.2,0.3-0.3c0.1-0.1,0.3-0.2,0.4-0.3c0.2-0.2,0.3-0.3,0.5-0.5
			c0.1,0,0.2-0.1,0.5-0.3l0,0l0,0c0.1,0,0.2-0.1,0.4-0.3c0-0.1,0.2-0.2,0.2-0.2c1-1.2,1.9-2.6,2.8-4c0.3-0.5,0.6-1,0.8-1.5
			c0.2-0.3,0.5-0.7,0.6-1c0.1-0.1,0.2-0.3,0.3-0.4c0.6-1.7,1.4-3.4,1.6-5.1c0.2-0.7,0.6-1.6,0.5-2.2C63.5,40,63.8,38.8,63.7,37.8
			L63.7,37.8z M57.7,14.1L57.7,14.1C57.7,14.1,57.7,14.1,57.7,14.1L57.7,14.1z M18.3,3.1C18.3,3,18.3,3,18.3,3.1
			c0.1-0.1,0.2-0.1,0.2-0.2C18.4,3,18.3,3,18.3,3.1z M22.2,64.2C22.2,64.2,22.2,64.3,22.2,64.2c-0.1,0-0.2,0-0.2,0
			C22.1,64.2,22.2,64.2,22.2,64.2z M61.8,32.1L61.8,32.1L61.8,32.1L61.8,32.1z M61.6,36.4c0-0.7,0.1-1.4,0-2
			C61.7,34.9,61.6,35.7,61.6,36.4z M61.6,23.5c0,0-0.1-0.2-0.1-0.2c0-0.1,0-0.2-0.1-0.3C61.5,23.2,61.6,23.4,61.6,23.5z M61.4,27.4
			L61.4,27.4C61.4,27.5,61.4,27.6,61.4,27.4C61.3,27.5,61.4,27.5,61.4,27.4z M60.8,33.8L60.8,33.8L60.8,33.8L60.8,33.8z M60,31.4
			c0,0.1,0.1,0.2,0,0.3c0,0.3-0.1,0-0.1-0.2C60,31.6,60,31.6,60,31.4z M59.6,36.2L59.6,36.2L59.6,36.2
			C59.6,36.3,59.6,36.2,59.6,36.2z M53.1,52.9c0.1-0.1,0.1-0.2,0.2-0.3c0-0.5,0.6-1.3,1.1-2.2c-0.2,0.7-0.6,1.5-1.1,2.2
			c0,0,0,0.1,0,0.1C53.3,52.8,53.2,52.9,53.1,52.9z M13.2,52.5c0,0-0.1-0.1-0.1-0.1l0,0l0,0c-0.1-0.1,0,0-0.1-0.1l0,0
			c0,0,0,0,0.1,0.1c0,0,0,0,0,0L13.2,52.5C13.2,52.4,13.2,52.4,13.2,52.5z M7.8,50.8C7.8,50.8,7.7,50.8,7.8,50.8c0,0,0,0,0-0.1
			c0,0,0,0,0,0c0,0,0,0,0,0c-0.3-0.6-0.5-1.3-0.3-1.2c0.3,0.4,0.6,1,1,1.4c0.2,0.2,0.3,0.5,0.5,0.8c0.3,0.7,0.3,0.8,0.2,1
			c-0.2-0.3-0.4-0.6-0.7-1c-0.1-0.3-0.4-0.7-0.7-1.1C7.8,50.8,7.8,50.8,7.8,50.8z M8.6,40.7L8.6,40.7L8.6,40.7L8.6,40.7z M8.2,42.6
			c-0.1-0.1-0.1-0.1-0.1-0.1C8.1,42.7,8,42.9,8,43c0-0.2,0-0.4,0.2-0.4c0-0.1,0-0.2,0-0.4C8.2,42.3,8.2,42.4,8.2,42.6z M7.2,48.1
			C7.2,48.1,7.2,48.1,7.2,48.1c0.1,0.1,0.2,0.3,0.3,0.4l0,0C7.4,48.4,7.4,48.3,7.2,48.1z M6.8,45.1C6.7,45,6.6,45,6.6,44.9
			c0-0.1,0-0.1-0.1-0.2C6.6,44.9,6.7,45,6.8,45.1z M5.8,41.1c0,0-0.1-0.1-0.1-0.1c0,0,0,0,0-0.1C5.7,41,5.7,41.1,5.8,41.1z M3,38.5
			c0,0,0-0.1,0-0.1l0,0C2.9,38.5,2.9,38.5,3,38.5z M3.8,41.5c-0.1,0,0,0.2,0,0.5c-0.1-0.1-0.1-0.3-0.2-0.5
			C3.7,41.4,3.7,41.5,3.8,41.5z M5.3,39.8c-0.1-0.1-0.1-0.3-0.2-0.6C5.1,39.4,5.2,39.6,5.3,39.8z M5.5,41.4c0-0.2,0-0.4,0-0.4
			C5.5,41.1,5.5,41.2,5.5,41.4z M2.5,31.7L2.5,31.7L2.5,31.7L2.5,31.7C2.5,31.7,2.5,31.7,2.5,31.7L2.5,31.7z M2.3,32.9L2.3,32.9
			C2.3,33,2.3,33,2.3,32.9c0,0.2,0,0.4-0.1,0.5c0,0,0,0.1,0,0.1c0-0.1,0-0.1,0-0.1c0,0,0,0,0-0.1C2.3,33.3,2.3,33.1,2.3,32.9
			C2.3,33,2.3,33,2.3,32.9z M1.8,37.9C1.9,37.9,1.9,37.9,1.8,37.9c0.1,0.1,0.1,0.1,0.1,0.2C1.9,38,1.9,38,1.8,37.9
			c-0.1,0-0.2-0.2-0.3-0.3C1.7,37.6,1.8,37.7,1.8,37.9z M5.9,46.3C5.9,46.5,6,46.6,6,46.7c0,0.2,0.1,0.3,0.2,0.4l0-0.1
			c0.1,0.2,0.1,0.3,0.2,0.4C6.6,48,7,48.8,6.8,48.7c-0.1,0-0.1,0-0.1,0.1c-0.1-0.2-0.2-0.3-0.3-0.5l0,0c0-0.2-0.3-0.6-0.5-1
			c0-0.3-0.1-0.6-0.3-0.9C5.7,46.4,5.8,46.4,5.9,46.3z M13.8,11.5C13.8,11.5,13.8,11.5,13.8,11.5C13.8,11.4,13.8,11.4,13.8,11.5
			C13.8,11.5,13.8,11.5,13.8,11.5z M34.9,5L34.9,5c0,0.1-0.2,0-0.2,0.1C34.7,5,34.9,5,34.9,5z M32.8,4.7C32.7,4.7,32.8,4.7,32.8,4.7
			c-0.1,0-0.2,0-0.2,0l0.1,0c0.1,0,0.4,0,0.6,0C33.1,4.7,32.9,4.6,32.8,4.7z M33.2,5L33.2,5c0,0,0,0-0.1,0c0,0,0,0,0,0L33,5
			c0,0,0,0-0.1,0c0,0,0.1,0,0.1,0l0,0l0,0C33.2,5,33.2,5,33.2,5z M55.4,44.9c0-0.1,0.1-0.1,0.1-0.2l0,0C55.5,44.8,55.4,45,55.4,44.9
			z M55.5,45.1L55.5,45.1L55.5,45.1C55.5,45.1,55.5,45.1,55.5,45.1C55.5,45.1,55.5,45.1,55.5,45.1C55.5,45.1,55.5,45.1,55.5,45.1
			C55.5,45.1,55.5,45.1,55.5,45.1L55.5,45.1z M58.7,36c0,0.1,0,0.1,0,0.3C58.7,36.1,58.6,36.1,58.7,36C58.7,36,58.7,36,58.7,36z
			 M58.1,20.3C58.1,20.3,58.1,20.3,58.1,20.3L58.1,20.3C58.1,20.3,58.1,20.3,58.1,20.3C58.1,20.3,58.1,20.3,58.1,20.3
			C58,20.2,58,20.1,58,20.1C58,20.2,58,20.2,58.1,20.3z M57.9,17.3C58,17.3,58,17.3,57.9,17.3C58,17.3,58,17.3,57.9,17.3
			C57.9,17.3,57.9,17.3,57.9,17.3L57.9,17.3C57.9,17.2,57.9,17.3,57.9,17.3z M57.5,16.9L57.5,16.9C57.5,16.9,57.5,16.9,57.5,16.9
			C57.5,16.9,57.5,16.9,57.5,16.9z M48.2,8.6c-0.2-0.1-0.4-0.2-0.6-0.3C47.7,8.4,47.9,8.4,48.2,8.6z M46.3,7.8c0,0,0.1,0,0.1,0
			c0,0,0,0,0.1,0C46.4,7.8,46.4,7.8,46.3,7.8z M46.5,7.6c0-0.1-0.1-0.2-0.3-0.3C46.4,7.5,46.6,7.6,46.5,7.6z M43,5.7
			c0.1,0,0.1,0.1,0.2,0.1c-0.1,0-0.3-0.1-0.4-0.1C42.9,5.6,42.9,5.7,43,5.7z M39.8,3.8c0.1,0,0.3,0.1,0.5,0.1c0,0,0,0,0.1,0
			C40.2,3.8,40,3.8,39.8,3.8L39.8,3.8z M33.9,0.5c0,0,0,0-0.1,0l0,0L33.9,0.5z M28.6,0.7C28.6,0.7,28.6,0.7,28.6,0.7
			c0,0-0.1,0-0.2,0L28.6,0.7z M7.4,16c0,0,0,0.1,0,0.1c0,0,0,0,0,0C7.3,16.1,7.3,16.1,7.4,16z M7.3,16.2C7.3,16.2,7.3,16.2,7.3,16.2
			c0,0-0.1,0-0.1,0.1C7.2,16.3,7.3,16.2,7.3,16.2z M1.5,35.3C1.4,35.4,1.4,35.4,1.5,35.3C1.4,35.4,1.4,35.4,1.5,35.3
			C1.4,35.4,1.4,35.4,1.5,35.3z M2.2,41.1C2.2,41.1,2.2,41.1,2.2,41.1L2.2,41.1C2.2,41.1,2.2,41.1,2.2,41.1z M5.4,47.5
			c-0.1-0.2-0.2-0.4-0.2-0.6c0,0,0.1,0.1,0.1,0.1c0,0.2,0.1,0.4,0.2,0.6C5.5,47.6,5.5,47.5,5.4,47.5z M7.6,51.6
			c-0.5-0.8-1-1.6-1.3-2.4c0-0.1-0.1-0.2-0.1-0.3c0.1,0.2,0.2,0.3,0.2,0.4c0.1,0.2,0.3,0.6,0.5,0.8c0,0.1,0.1,0.1,0.1,0.1
			c0.7,0.9,1.2,1.8,2.1,2.6c0,0,0,0-0.1,0.1C8.8,53.1,8.2,52.3,7.6,51.6z M9.4,45.6c0.2,0,0.2-0.2,0.1-0.6c0,0,0,0,0,0
			c0.1,0.3,0.1,0.5,0.1,0.7C9.8,46.1,9.6,45.7,9.4,45.6z M9.8,51.1C9.8,51.2,9.7,51,9.8,51.1c0.1,0.1,0.1,0,0.1,0.1
			C9.9,51.2,9.8,51.2,9.8,51.1z M11.9,51.2L11.9,51.2c0.1,0,0.2,0.1,0.2,0.1C12,51.3,11.9,51.1,11.9,51.2z M12.8,52.5
			c0.1,0.1,0.3,0.3,0.3,0.3c0,0.1,0,0,0,0c0,0,0.1,0.1,0.1,0.1l-0.1,0C13.1,52.8,12.9,52.7,12.8,52.5z M13.2,58.6
			C13.2,58.6,13.2,58.6,13.2,58.6c0,0,0.1,0.1,0.2,0.1L13.2,58.6z M14.5,58.1C14.5,58.1,14.5,58.1,14.5,58.1
			c-0.2-0.3-0.3-0.5-0.5-0.7l-0.1,0c0,0,0,0,0,0c0,0,0,0,0.1,0C14.4,57.8,14.5,57.9,14.5,58.1c0,0,0.1,0,0.1,0.1
			C14.5,58.1,14.5,58.1,14.5,58.1z M16.7,54.3c0.1,0,0.2,0.1,0.2,0.1c0,0,0,0.1,0,0.1C16.9,54.5,16.8,54.4,16.7,54.3z M18.3,58
			L18.3,58L18.3,58C18.3,58,18.3,58,18.3,58z M21.6,58.2c0.1,0.1,0.2,0.1,0.3,0.1C21.8,58.3,21.8,58.3,21.6,58.2z M23.3,59.1
			C23.3,59.1,23.3,59.1,23.3,59.1L23.3,59.1L23.3,59.1C23.2,59.1,23.2,59.1,23.3,59.1c-0.2,0.1-0.4,0-0.7-0.1
			c-0.1,0-0.3-0.1-0.4-0.2c0,0,0,0,0,0c-0.1-0.1-0.1-0.1-0.2-0.1c0.1,0,0.2,0.1,0.2,0.1c0.1,0.1,0.3,0.1,0.4,0.2
			C22.8,59,23,59,23.3,59.1C23.2,59.1,23.2,59.1,23.3,59.1C23.2,59.1,23.2,59.1,23.3,59.1c-0.1-0.1-0.2-0.2-0.3-0.3c0,0,0,0,0,0
			c0,0,0,0,0,0c0,0-0.1,0-0.1-0.1c-0.3-0.2-0.6-0.4-0.8-0.6l0,0c-0.3-0.2-0.7-0.4-0.7-0.4s0.3,0.2,0.6,0.4c0.1,0,0.1,0,0.1,0
			c0.4,0.2,0.7,0.5,0.8,0.6c0,0,0.1,0.1,0.1,0.1c0,0,0,0-0.1,0c0,0,0,0,0,0C23.2,58.9,23.4,59,23.3,59.1
			C23.2,59.1,23.3,59.1,23.3,59.1z M24.1,59.2l-0.3-0.1C23.8,59.1,24,59.2,24.1,59.2C24.1,59.2,24.1,59.2,24.1,59.2z M25.9,61.6
			L25.9,61.6L25.9,61.6L25.9,61.6z M27.6,60.7C27.6,60.7,27.5,60.7,27.6,60.7C27.5,60.7,27.6,60.7,27.6,60.7
			C27.6,60.8,27.6,60.8,27.6,60.7z M29.9,61.3L29.9,61.3L29.9,61.3L29.9,61.3z M31.5,61.5c-0.2-0.1-0.3-0.2-0.5-0.2
			c0.1,0,0.4,0,0.6,0C31.7,61.4,31.7,61.5,31.5,61.5z M33.9,59.6c0,0,0.1,0,0.2,0.1c0,0,0,0,0.1,0l0,0c-0.1,0-0.1,0-0.1,0
			C34,59.6,33.9,59.6,33.9,59.6C33.9,59.6,33.9,59.6,33.9,59.6z M34.2,60C34.3,60,34.3,60,34.2,60c0,0-0.1,0-0.2,0.1
			C34.1,60.1,34.2,60.1,34.2,60z M39.3,62.7C39.3,62.7,39.3,62.7,39.3,62.7c0,0-0.1,0.1-0.1,0.1C39.2,62.8,39.2,62.7,39.3,62.7
			C39.3,62.7,39.3,62.6,39.3,62.7c0,0,0.1,0,0.2,0.1C39.4,62.7,39.3,62.7,39.3,62.7z M41.9,59.6c-0.1,0-0.3,0.1-0.3,0
			c-0.1,0,0,0-0.1,0c0,0,0,0,0,0c0,0,0,0,0.1,0l0,0l0.2,0C41.8,59.6,41.9,59.6,41.9,59.6C41.9,59.6,42,59.6,41.9,59.6L41.9,59.6
			C42,59.6,41.9,59.6,41.9,59.6z M48,56.8c-0.4,0.2-0.8,0.3-0.9,0.3c-0.2-0.1,0.2-0.3,0.6-0.5c0.2-0.1,0.3-0.2,0.2-0.3
			c-0.2,0.1-0.6,0.3-0.8,0.3c0.3-0.2,0.7-0.4,1-0.6c-0.1,0-0.1,0-0.1,0c0,0,0,0,0,0c0,0,0,0,0,0c0,0,0,0,0,0c0.1,0,0.1,0,0.1,0
			c0,0,0.1-0.1,0.2-0.1c0.4-0.2,0.9-0.6,1.3-0.8c0.6-0.3,1.1-0.8,1.6-1.3l0,0l0,0c0,0,0,0,0,0c0.4-0.5-0.1-0.1-0.4,0.1L50.8,54
			l-0.1,0c-0.2,0.1-0.7,0.5-0.9,0.5c1-0.8,2.1-1.7,3-2.7c0.1-0.1,0.1-0.1,0.2-0.2c0,0,0,0,0,0c-0.1,0.1,0,0,0.1-0.1
			c0.1-0.1,0.1-0.2,0.1-0.2c0,0,0,0,0,0c0.2-0.2,0.3-0.3,0.3-0.5c0-0.2,0.1-0.3,0.2-0.5c0.2-0.1,0.6-0.5,0.8-0.4
			c-0.1,0.2-0.2,0.4-0.2,0.4c-0.5,0.7-0.7,1.1-0.9,1.6c-0.3,0.5-0.4,0.8-0.8,1.4c-0.3,0.3-0.5,0.6-0.7,0.8c-0.1,0-0.1,0.1-0.2,0.1
			C50.5,55.3,49.3,56.1,48,56.8z M49.4,56.5c0,0,0.1-0.1,0.1-0.1c0,0,0.1,0,0.1-0.1c0.1,0,0.1-0.1,0.2-0.1c-0.1,0-0.1,0-0.2,0.1
			C49.5,56.4,49.5,56.5,49.4,56.5z"/>
		<path class="st3" d="M9.1,12.4c-0.1,0.3-0.9,1.2-1,1.6C9.3,12.5,9.4,12.6,9.1,12.4z"/>
		<path class="st3" d="M1.2,29.1c0.1-0.4,0.2-0.9,0.3-1.3c0.3-0.7,0.4-1.7,0.7-2.6c0.1-0.2,0.2-0.5,0.2-0.7C2.7,24.1,2.8,23.4,3,23
			c0.1-0.2,0.2-0.4,0.3-0.6c0.3-0.9,0.6-1.7,1.1-2.4l0.1-0.1l0.1-0.1c0.8-1.3,1.4-2.5,2-3.6L7,15.4c0.2-0.3,0.3-0.5,0.2-0.5
			c0,0,0,0,0,0c0.2-0.3,0.4-0.6,0.5-0.9c-2.1,2.6-3.8,5.6-5,8.7c0-0.1-0.1,0.1-0.2,0.3c-0.2,0.6-0.4,1.2-0.6,1.8
			c-0.2,0.5-0.4,1.2-0.5,1.8c-0.1,0.4-0.2,0.8-0.3,1.2C1.1,28.2,1,28.7,0.9,29c0,0.2,0,0.3-0.1,0.4c-0.1,0.3-0.2,0.8-0.2,1.3
			c0,0.1,0,0.3-0.1,0.4c0,0.2-0.1,0.4-0.1,0.5c0,0.5,0,1,0,1.5c0,0,0,0.1,0,0.1c0,0,0,0,0.1-0.1c0-0.1,0.1-0.2,0.1-0.4l0,0
			c0.1-0.2,0.1-0.6,0.1-0.9c0-0.1,0-0.2,0-0.3c0.1-0.2,0.1-0.5,0.2-0.9c0,0.1-0.1,0.2-0.1,0.3c0,0,0,0.1,0,0.1c0,0,0,0,0,0
			c0,0,0-0.1,0-0.1c0-0.1,0.1-0.2,0.1-0.3C1.1,30.3,1,29.5,1.2,29.1L1.2,29.1z"/>
		<path class="st3" d="M56.9,12c-0.7-1-1.4-1.5-2-2C55.6,10.5,56.3,11.5,56.9,12z"/>
		<path class="st3" d="M60.4,16.9c0.2,0.4,0.4,0.8,0.7,1.2c0.1,0.2,0.2,0.4,0.3,0.5c0.2,0.2,0.1-0.1,0-0.3c-0.4-0.8-0.8-1.8-1.4-2.4
			c-0.1-0.1-0.1-0.2-0.2-0.3c-0.2-0.3-0.4-0.5-0.4-0.5c-0.1,0,0.1,0.2,0.2,0.4C59.8,16,60.1,16.5,60.4,16.9z"/>
		<path class="st3" d="M11.7,9.9c-0.1,0-0.2,0.1-0.3,0.2c-0.1,0.1-0.2,0.2-0.3,0.4c0.1-0.1,0.2-0.2,0.3-0.2
			C11.6,10.1,11.7,9.9,11.7,9.9z"/>
		<path class="st3" d="M10.3,11.2c0-0.1,0-0.1,0.1-0.2c-0.1,0.1-0.2,0.2-0.3,0.2c0,0-0.1,0.2,0,0.1C10.1,11.4,10.2,11.3,10.3,11.2z"
			/>
		<path class="st3" d="M61.3,48.3c-0.1,0.1-0.1-0.1-0.2,0.3c0,0.1,0,0.2,0,0.2c0.1-0.1,0.1-0.2,0.2-0.3
			C61.4,48.3,61.4,48.1,61.3,48.3z"/>
		<path class="st3" d="M63.8,27.4c0.1,0.1,0-0.4,0-0.6l-0.3-1.4c-0.1-0.3-0.2-0.2-0.2,0l0.3,1.4C63.7,27.1,63.8,27.4,63.8,27.4z"/>
		<polygon class="st3" points="49.2,7.4 49.3,7.5 49.2,7.4 		"/>
	</g>
	<g>
		<g>
			<path class="st1" d="M38.9,49.2H25.5c-5.9,0-10.8-4.8-10.8-10.8V26.7c0-5.9,4.8-10.8,10.8-10.8h13.4c5.9,0,10.8,4.8,10.8,10.8
				v11.8C49.7,44.4,44.8,49.2,38.9,49.2z M25.5,18.3c-4.6,0-8.4,3.8-8.4,8.4v11.8c0,4.6,3.8,8.4,8.4,8.4h13.4c4.6,0,8.4-3.8,8.4-8.4
				V26.7c0-4.6-3.8-8.4-8.4-8.4H25.5z"/>
		</g>
		<g>
			<path class="st1" d="M32.2,42.1c-5.3,0-9.6-4.3-9.6-9.6c0-5.3,4.3-9.6,9.6-9.6c5.3,0,9.6,4.3,9.6,9.6
				C41.8,37.8,37.5,42.1,32.2,42.1z M32.2,25.4c-4,0-7.2,3.2-7.2,7.2c0,4,3.2,7.2,7.2,7.2c4,0,7.2-3.2,7.2-7.2
				C39.4,28.6,36.2,25.4,32.2,25.4z"/>
		</g>
		<g>
			<path class="st1" d="M43.6,23.3c0,1.1-0.9,2-2,2c-1.1,0-2-0.9-2-2c0-1.1,0.9-2,2-2C42.7,21.3,43.6,22.2,43.6,23.3z"/>
		</g>
	</g>
</g>
<g id="hover_effect">
</g>
</svg>
