<svg xmlns="http://www.w3.org/2000/svg" viewBox="0 0 63.47 64.67"><defs><style>.cls-1{fill:#fff;fill-rule:evenodd;}.cls-2{fill:#151211;}</style></defs><g id="Vrstva_2" data-name="Vrstva 2"><g id="Mapa_obrys" data-name="Mapa obrys"><path class="cls-1" d="M34.84,63.91c.3-.15,1.48-.21,1.87-.41C34.8,63.64,34.8,63.57,34.84,63.91Z"/><path class="cls-1" d="M.73,30.38a8.25,8.25,0,0,0,0,2.81C.62,32.36.87,31.14.73,30.38Z"/><path class="cls-1" d="M31.26,63.88a.69.69,0,0,0,.35.06l.48,0-.37-.08C31.48,63.82,31.27,63.81,31.26,63.88Z"/><path class="cls-1" d="M33.17,63.87l-.17.07.38.05s.17-.06.1-.08A1.56,1.56,0,0,0,33.17,63.87Z"/><path class="cls-1" d="M36.26.55l3.35.74,1.28.39a19.52,19.52,0,0,1,2.69,1l-.06-.06,1.29.58c.4.13.88.46,1.27.61.7.4,1.43.74,2,1.15a4,4,0,0,0,.83.49l1.63,1.11c.21.09.55.41.73.49s.3.19.41.24a4.53,4.53,0,0,0-1-.9L48.77,5.06a6,6,0,0,0-1.67-1l-1.26-.67a18.8,18.8,0,0,0-2.18-1l-.82-.34a5.37,5.37,0,0,0-1.37-.48L41,1.49a1.71,1.71,0,0,0-.44-.13l-.41-.12A21.73,21.73,0,0,0,36.26.3c-.34,0-.54,0-.55,0S35.92.49,36.26.55ZM48.32,5l0,0a1.76,1.76,0,0,1,.41.28L48.35,5h0Z"/><path class="cls-1" d="M58.94,51l0,0,0,.08Z"/><path class="cls-1" d="M63.26,37.57v0A11.32,11.32,0,0,0,63.45,35a1.72,1.72,0,0,0-.07.21,2.94,2.94,0,0,0,0-.52l0-.12v-.15c0-.69,0-1.38,0-2.11l-.08-.42a35.88,35.88,0,0,0-1.07-6c-.06-.15-.12-.32-.16-.43-.49-1.67-1-3.19-1.71-4.87l-.24-.34-.18-.46a2.14,2.14,0,0,0-.39-.81,13.58,13.58,0,0,0-1.69-2.87,47.52,47.52,0,0,0-3.15-3.82c-.56-.6-.89-1.21-1.46-1.75s-.65-.3-1.44-.95-1.68-1.38-2.6-2.05l-.06.07s0-.11.06-.07l-.36-.25-.06.07-1.11-.77-.41-.17-.14-.06-.08-.07c-.32-.26-.77-.41-.94-.62.21,0,.9.4,1,.3a5.13,5.13,0,0,0-2.63-1.06c-.25-.15-.6-.33-.58-.39.21-.17-.35-.36-1.08-.6S42,3.76,42,3.9l-.4-.16a1.36,1.36,0,0,0-.44-.18l.06,0-.43-.19c-.51-.18-1.33-.38-1-.51s-.12-.24-.72-.43a3.88,3.88,0,0,0-1.51-.3c.6.19,1.3.53,1.07.66l-.85-.2a3,3,0,0,0-.58-.48c-.07-.09-.14-.16-.43-.23a.93.93,0,0,0-.49-.59l.89.08a9.4,9.4,0,0,1,2.63.83,5.8,5.8,0,0,0,1.74.54l2.43,1a55.85,55.85,0,0,1,5.7,3.09l0,0c1,.64,1.92,1.58,2.91,2.32a8.76,8.76,0,0,1,1.3,1.17l.46.44a12.87,12.87,0,0,1,1,1c1,1.17,1.87,2.19,2.66,3.31l-.07-.18,0,.06,0,.12a7,7,0,0,0,.8,1.08l.13.18.11.2a15.3,15.3,0,0,0,1.14,2,3.28,3.28,0,0,1,.22.37c.21.48.44,1,.65,1.33,0,.11,0,.11.07.1s0,0,0-.13a11.28,11.28,0,0,0-1.61-3.62l-.73-1.14a19.82,19.82,0,0,0-5.18-6,3.31,3.31,0,0,0-.7-.59,3.28,3.28,0,0,0-.73-.5l-.68-.55-1.09-1A21.61,21.61,0,0,0,45,3.66c-.86-.4-1.8-.69-2.7-1.16-.67-.38-1.55-.73-1.26-.29,0,.1-.54-.07-.9-.18-.68-.2-1.46-.48-2.2-.63a1.53,1.53,0,0,1-.29-.07,1.21,1.21,0,0,0-.51-.11,1.13,1.13,0,0,1-.34-.07C36.16.94,35.51.77,34.85.62A6.1,6.1,0,0,0,34,.45c0-.08-.16-.15-.51-.19A3.11,3.11,0,0,0,33,.19l-.12,0h0l.16,0C33,.12,32.79.08,32.4.07h0S32.16,0,31.88,0a.86.86,0,0,1-.31,0,20.37,20.37,0,0,0-2.2.29,5.92,5.92,0,0,0-1.26,0,34.74,34.74,0,0,0-5.22.75v0h0v0a13.84,13.84,0,0,0-2.65.63,4.25,4.25,0,0,0-1.32.35,5.22,5.22,0,0,0-1,.3c-.46.17-.28.23-.55.36a1.31,1.31,0,0,0-.45.3c-.12.1-.71.36-.56.41s.2.06.49,0c.13.09.47,0,1-.09l.09-.06h0a.33.33,0,0,0-.1.06l1.06.18c.05.12.19.19.65.1-.25.15-.49.31-.72.47a7,7,0,0,0-1.95,1.2,20.57,20.57,0,0,0-2.71,2.07l.06,0c-.42.45-1.13.87-1.43,1.29h0a7.93,7.93,0,0,0-.71.71l-.07.1-.11.09-1.25,1.22A7.16,7.16,0,0,0,9.1,12.25c-.57.78-1.67,2-2.29,3a16.17,16.17,0,0,0-1.95,3.13l0,0c0,.06,0,.06,0,.06l0,0a31.24,31.24,0,0,0-1.72,3.48,11.46,11.46,0,0,0-.86,2.36c-.07.21-.13.42-.19.62A21,21,0,0,0,.91,29.85a7.74,7.74,0,0,0-.06,2.48.38.38,0,0,1,0,.27,2.35,2.35,0,0,0-.1.82A9.11,9.11,0,0,0,.8,36l0,0h0s0,0,0,0a4.09,4.09,0,0,0,.07,1.37h0A10.23,10.23,0,0,0,1,38.67a.53.53,0,0,1,0,.27,2.39,2.39,0,0,0,.08.86,4,4,0,0,0,.45,1.51h0A4.07,4.07,0,0,0,2,42.41c.14.48.28.92.41,1.37A20.73,20.73,0,0,0,3.24,46l.33.82a5,5,0,0,0,.64,1.31l.25.48a1.62,1.62,0,0,0,.22.41c.07.13.13.23.21.36a20.65,20.65,0,0,0,2.05,3.39c.2.27.35.4.41.36s0-.25-.24-.53c-.59-.94-1.26-2-1.84-2.9l-.63-1.18a20.16,20.16,0,0,1-1.21-2.59V46c-.18-.46-.33-.85-.5-1.32s-.3-1-.48-1.33q-.08-.32-.18-.63l.06.11h0l.13.24c0-.1,0-.17,0-.26v0h0a2.73,2.73,0,0,0,0-.36,3.15,3.15,0,0,0-.14-.84h0c0-.08,0-.17,0-.28a25.25,25.25,0,0,0,.92,2.87c.32.89.79,1.76,1.09,2.74.21.73.58,1.61.69,1.09,0-.1.32.43.5.76.34.62.7,1.37,1.11,2a1.13,1.13,0,0,1,.16.26A1.32,1.32,0,0,0,7,51.5a1,1,0,0,1,.19.28,14,14,0,0,0,3.73,4.81,5.13,5.13,0,0,1,.65.68,5.27,5.27,0,0,0,1.19,1.22A33.21,33.21,0,0,0,17,61.66v0h0l0,0a14,14,0,0,0,2.31,1.42,4.43,4.43,0,0,0,1.19.69,5.09,5.09,0,0,0,.93.51c.45.21.36,0,.65.13a1.26,1.26,0,0,0,.52.11c.16,0,.76.25.69.1s-.09-.18-.35-.34c0-.15-.31-.36-.76-.62l-.11,0h0a.45.45,0,0,0,.11,0l-.62-.88c.06-.14,0-.32-.64-.68a4,4,0,0,1-.24-.41c.45.21.95.41,1.39.57s.74.14.78.05-.41-.29-.73-.45-.67-.4-.69-.51.5.08.78.14a30.31,30.31,0,0,0,3.25,1,5.42,5.42,0,0,0,1.58.36l0,0h0v0a11.22,11.22,0,0,0,2.13.37L29,63.15h0l.13.06a7.91,7.91,0,0,0,2.05.18l-.06,0h.07v0a14.32,14.32,0,0,0,3.42.11c.95-.14,2.59-.22,3.72-.47a15.69,15.69,0,0,0,3.59-.84h-.07l.06,0v0a28.8,28.8,0,0,0,6.53-2.6,21.56,21.56,0,0,0,3.9-2.36h0c0,.06.17,0,.42-.15l.12-.15h0l-.13.15a1.32,1.32,0,0,0,.42-.09,7.09,7.09,0,0,1-1,.71l0,0c-.34.18-.8.54-1.12.67-.74.25-1.5,1-2.31,1.34l-.67.33c-.46.15-1,.55-1.52.69L46,61a11.36,11.36,0,0,1-2.5,1l-.13,0-.1,0c-2.56.62-4.43,1.3-6.41,1.76a32.53,32.53,0,0,0,10.78-3.15l.74-.38a6.48,6.48,0,0,0,1.92-1l1-.65c.35-.17.76-.48,1.09-.68a1.84,1.84,0,0,1,.31-.22,5.43,5.43,0,0,0,1.07-.77l.34-.26a4.22,4.22,0,0,0,.44-.28l.48-.46a1.48,1.48,0,0,0,.45-.35l0,0h0c.07,0,.19-.09.39-.28a1,1,0,0,1,.21-.24,29.9,29.9,0,0,0,2.78-3.95,11.92,11.92,0,0,0,.85-1.5,4.2,4.2,0,0,0,.58-1c.11-.15.21-.28.32-.41a25.73,25.73,0,0,0,1.61-5.06,6.66,6.66,0,0,0,.53-2.22,18.59,18.59,0,0,0,.45-3.38Zm-6-23.72h0s0,0,0,0Zm-39.36-11s-.06,0,0-.09.11,0,.14-.07S17.84,2.82,17.85,2.85ZM21.76,64s0,.07-.1,0a.78.78,0,0,1-.14-.05C21.63,64,21.75,64,21.76,64ZM61.31,31.89h0v-.07Zm-.2,4.26a8.63,8.63,0,0,0,0-2A7.16,7.16,0,0,1,61.11,36.15Zm0-12.88s-.1-.2-.14-.23,0-.18-.06-.25Zm-.26,3.92h0s0,.15-.05.09A.85.85,0,0,0,60.9,27.19Zm-.61,6.44h0v0Zm-.71-2.43a2,2,0,0,1,0,.31c0,.27-.07,0-.11-.17S59.57,31.34,59.58,31.2ZM59.16,36h0v.07S59.16,36,59.16,36ZM52.68,52.71l.15-.28A12.57,12.57,0,0,1,53.9,50.2a10.69,10.69,0,0,1-1.07,2.23s0,.09,0,.12Zm-39.91-.47a.76.76,0,0,0-.11-.08h0l0,0-.07-.07h0l.07.08,0,0,.06,0ZM7.31,50.62l0,0c.06,0,.09,0,.07,0s0,0,0,0l0,0c-.29-.56-.54-1.29-.29-1.22a15.66,15.66,0,0,0,1,1.44l.53.78c.28.69.34.82.19,1a11.49,11.49,0,0,0-.69-1,4.67,4.67,0,0,0-.71-1.06C7.36,50.59,7.34,50.6,7.31,50.62Zm.87-10.1h0v.07Zm-.41,1.86c-.06-.05-.09-.06-.12-.06a.92.92,0,0,1-.16.42c0-.17,0-.45.16-.42a2.17,2.17,0,0,0,0-.38C7.74,42.12,7.7,42.2,7.77,42.38Zm-1,5.48,0-.06a2.5,2.5,0,0,0,.32.48H7Zm-.49-2.93-.12-.22-.06-.16Zm-1-4s-.07,0-.11-.15l0-.06C5.22,40.78,5.28,40.9,5.31,40.89ZM2.49,38.31a.78.78,0,0,1-.05-.12h0C2.47,38.28,2.47,38.28,2.49,38.31Zm.81,3c-.06,0,0,.21,0,.46a1.35,1.35,0,0,1-.16-.49C3.19,41.15,3.25,41.23,3.3,41.29Zm1.49-1.73a1.94,1.94,0,0,1-.21-.64A4.8,4.8,0,0,0,4.79,39.56ZM5,41.21c0-.21,0-.38,0-.39S5,41,5,41.21ZM2.07,31.45v.06h0v-.06Zm-.19,1.26v0a0,0,0,0,1,0,0l-.05.46v0a2.81,2.81,0,0,1,.05-.46Zm-.52,4.95s0,0,.08,0,0,.17,0,.27a1.23,1.23,0,0,0-.11-.23c-.08,0-.17-.15-.26-.29A.94.94,0,0,1,1.36,37.66Zm4,8.47c.07.17.11.26.16.4a1.6,1.6,0,0,0,.19.43v-.07a2.93,2.93,0,0,0,.18.43c.23.49.66,1.21.37,1.11-.08,0-.11,0-.11.07L5.93,48h0c0-.23-.33-.65-.48-1a4.33,4.33,0,0,0-.29-.92C5.27,46.19,5.35,46.19,5.4,46.13Zm7.93-34.89h0ZM34.4,4.74v0s-.17,0-.17,0S34.39,4.78,34.4,4.74Zm-2.06-.28h-.13a2.39,2.39,0,0,1,.56,0C32.67,4.45,32.41,4.43,32.34,4.46Zm.43.31h0a.24.24,0,0,1-.1,0h0l-.07,0H32.5s.11,0,.14,0h.13ZM55,44.65a.55.55,0,0,1,.1-.17h0C55,44.55,55,44.75,55,44.65Zm.08.22,0,.05v-.06l0,0v0s0,0,0,0v0Zm3.19-9.11,0,.26a.79.79,0,0,0,0-.17C58.19,35.76,58.21,35.79,58.23,35.76Zm-.61-15.65,0,0,0,0h0l0-.09a.42.42,0,0,1,0-.1A.62.62,0,0,0,57.62,20.11Zm-.14-3.06,0,0,0,0h0l0,0Zm-.43-.38h0l0,0ZM47.71,8.42a5.52,5.52,0,0,0-.59-.3A1.77,1.77,0,0,1,47.71,8.42Zm-1.87-.88.15,0,.06,0A.65.65,0,0,0,45.84,7.54Zm.2-.13s-.09-.17-.26-.31C46,7.24,46.08,7.34,46,7.41Zm-3.54-2,.16.08-.4-.14Zm-3.15-1.9.49.11.07,0a3.34,3.34,0,0,0-.57-.11ZM33.44.27l-.1,0h0ZM28.16.44h-.23ZM6.89,15.82v.12h0A.17.17,0,0,1,6.89,15.82Zm0,.18h0l-.12.06ZM1,35.12c0,.05,0,.09-.06.06v-.07C1,35.18,1,35.16,1,35.12Zm.73,5.8ZM5,47.28c-.08-.21-.17-.42-.25-.62a1.71,1.71,0,0,0,.11.14,2.8,2.8,0,0,0,.22.6A.5.5,0,0,0,5,47.28Zm2.12,4.06a9.71,9.71,0,0,1-1.27-2.45l-.12-.31a2.76,2.76,0,0,1,.24.44,5.07,5.07,0,0,0,.48.85c0,.05.1.09.15.14a19.14,19.14,0,0,0,2.1,2.64l-.06.07C8.37,52.9,7.71,52.1,7.09,51.34Zm1.85-6c.17,0,.21-.24.13-.65h0c.05.25.1.5.14.72C9.33,45.86,9.09,45.51,8.94,45.34Zm.37,5.58s-.05-.14,0,0,0,.07.07.17Zm2.08,0,0,0s.12.12.14.1S11.42,50.91,11.39,50.94Zm.92,1.38c.1,0,.27.25.34.27s0,0,0,0l.12.12-.06,0A4.36,4.36,0,0,1,12.31,52.32Zm.46,6.07,0-.06.22.2ZM14,57.86v0c-.21-.23-.33-.43-.54-.66l-.06,0s0,0,0,0l.05,0c.5.4.57.55.54.66l.11.13Zm2.23-3.74.24.1s0,.08,0,.11A1.94,1.94,0,0,1,16.24,54.12Zm1.61,3.64h0l0,0Zm3.32.26a2.22,2.22,0,0,0,.28.08C21.36,58.07,21.34,58.11,21.17,58Zm1.62.86h-.05a1.15,1.15,0,0,1-.68-.1,1.54,1.54,0,0,1-.42-.17l-.05,0-.2-.09.25.11.42.17c.23.06.43,0,.68.1h0s0,0,0,0l-.26-.29,0,0,0,0s-.06,0-.07-.08a6.11,6.11,0,0,1-.84-.62h0l-.69-.43.61.37.09.05a2.85,2.85,0,0,1,.84.62l.13.1-.06,0h0c.21.14.42.27.26.29Zm.81.13-.35-.15c.12,0,.26.12.41.17Zm1.78,2.33h0Zm1.71-.81s-.09-.05-.08-.08a.82.82,0,0,0,.17.11Zm2.35.55h0l.06,0ZM31,61.3a4.86,4.86,0,0,0-.51-.23l.6,0C31.19,61.17,31.28,61.24,31,61.3Zm2.46-1.95a.69.69,0,0,0,.23.07l.09,0h0l-.09,0-.29-.06Zm.31.48h0a.93.93,0,0,1-.21.06Zm5,2.62h0a.19.19,0,0,1-.1.1l.1-.1a0,0,0,0,0,0-.05s.11.06.19.09Zm2.64-3.09c-.12,0-.28.11-.29,0s0,0-.1,0h0l.07,0,0,0,.18,0,.11,0,.07,0h-.07Zm6.12-2.8c-.42.19-.78.34-.92.27s.21-.3.56-.53c.15-.1.34-.24.23-.26s-.58.31-.76.29c.31-.24.7-.38,1-.64a.32.32,0,0,1-.15,0h0l0,0h0c.07,0,.13,0,.15,0a.53.53,0,0,1,.2-.12c.42-.16.86-.57,1.31-.76a6.35,6.35,0,0,0,1.6-1.26h0l.05,0,0,0c.37-.52-.13-.1-.43.13l-.14.11-.08,0c-.25.07-.67.47-.92.52a28.38,28.38,0,0,0,3-2.66l.2-.2a.08.08,0,0,0,0,0c-.07.12,0,0,.12-.07a1.41,1.41,0,0,0,.12-.16h0c.17-.18.32-.35.32-.47a1.27,1.27,0,0,1,.24-.54c.24-.12.6-.48.76-.44-.14.23-.2.35-.19.44a10.23,10.23,0,0,0-.94,1.59,8.94,8.94,0,0,1-.83,1.41c-.26.29-.49.57-.71.84l-.18.13A33.79,33.79,0,0,1,47.56,56.56Zm1.35-.25.13-.08a.34.34,0,0,0,.12-.06l.16-.07a.71.71,0,0,0-.16.07A1.57,1.57,0,0,1,48.91,56.31Z"/><path class="cls-1" d="M8.65,12.15c-.11.32-.9,1.19-1,1.61C8.86,12.31,8.92,12.36,8.65,12.15Z"/><path class="cls-1" d="M.73,28.87c.11-.37.18-.95.31-1.27.35-.7.38-1.74.69-2.58L2,24.31c.21-.43.33-1.11.58-1.56l.26-.63a11.23,11.23,0,0,1,1.1-2.44L4,19.55l0-.08c.8-1.32,1.42-2.48,2-3.56l.51-.76c.16-.27.28-.51.23-.54h0c.18-.31.36-.62.55-.92a32.1,32.1,0,0,0-5,8.73c0-.11-.13.1-.21.35-.2.61-.44,1.23-.59,1.84A7.29,7.29,0,0,0,1,26.4c-.09.4-.18.77-.27,1.18s-.19.88-.29,1.25a1.49,1.49,0,0,1-.06.37,5.79,5.79,0,0,0-.21,1.31c0,.14,0,.31-.06.42s-.1.37-.12.51c0,.52,0,1,0,1.54a.56.56,0,0,0,0,.1s0,0,.06-.07a1.43,1.43,0,0,0,.1-.42h0c.07-.24.05-.62.1-.93,0-.1,0-.21,0-.31a3.19,3.19,0,0,0,.17-.89,1.62,1.62,0,0,1-.1.31l0,.13v0l0-.1.1-.31c.15-.4.11-1.16.27-1.63Z"/><path class="cls-1" d="M56.48,11.74a7.94,7.94,0,0,0-2-2C55.15,10.26,55.84,11.3,56.48,11.74Z"/><path class="cls-1" d="M59.93,16.66l.66,1.25a4,4,0,0,0,.32.53c.19.22.12-.05,0-.33a11.65,11.65,0,0,0-1.36-2.39l-.21-.33c-.18-.26-.37-.51-.44-.47s.08.23.21.43A14.25,14.25,0,0,0,59.93,16.66Z"/><path class="cls-1" d="M11.2,9.64a.61.61,0,0,0-.29.2l-.33.36L10.9,10C11.09,9.84,11.24,9.69,11.2,9.64Z"/><path class="cls-1" d="M9.85,11l.08-.18-.31.24s-.08.16,0,.13S9.77,11.06,9.85,11Z"/><path class="cls-1" d="M60.83,48.06c-.08.09-.09-.09-.22.28,0,.08,0,.17,0,.17a2.5,2.5,0,0,0,.23-.32C60.9,48.05,60.92,47.93,60.83,48.06Z"/><path class="cls-1" d="M63.35,27.16c.1.07,0-.35,0-.58L63,25.21c-.11-.26-.18-.24-.17,0l.27,1.36C63.21,26.91,63.3,27.17,63.35,27.16Z"/><polygon class="cls-1" points="48.71 7.14 48.85 7.27 48.78 7.17 48.71 7.14"/><path class="cls-2" d="M38.42,49H25A10.78,10.78,0,0,1,14.27,38.23V26.44A10.78,10.78,0,0,1,25,15.67H38.42A10.79,10.79,0,0,1,49.2,26.44V38.23A10.79,10.79,0,0,1,38.42,49ZM25,18.06a8.38,8.38,0,0,0-8.37,8.38V38.23A8.38,8.38,0,0,0,25,46.61H38.42a8.39,8.39,0,0,0,8.38-8.38V26.44a8.39,8.39,0,0,0-8.38-8.38Z"/><path class="cls-2" d="M31.73,41.92a9.59,9.59,0,1,1,9.59-9.59A9.6,9.6,0,0,1,31.73,41.92Zm0-16.78a7.2,7.2,0,1,0,7.2,7.19A7.2,7.2,0,0,0,31.73,25.14Z"/><path class="cls-2" d="M43.16,23a2,2,0,1,1-2-2A2,2,0,0,1,43.16,23Z"/></g></g></svg>