<svg xmlns="http://www.w3.org/2000/svg" viewBox="0 0 115.51 98.43"><g id="Vrstva_2" data-name="Vrstva 2"><g id="Vrstva_1-2" data-name="Vrstva 1"><path d="M20.54,30.75a11,11,0,0,0,9.29-4.47L36.24,30c-3.31,4.89-8.71,7.85-15.77,7.85C8.59,37.88.88,29.74.88,18.94S8.59,0,19.89,0C30.62,0,38,8.64,38,19a24.23,24.23,0,0,1-.29,3.24H9C10.24,27.87,14.78,30.75,20.54,30.75Zm9.58-14.84C29,9.72,24.5,7.06,19.82,7.06,14,7.06,10,10.51,9,15.91Z"/><path d="M97.73,14.62V36.94H90V15.12c0-5-2.74-7.85-7-7.85-4.61,0-7.85,3-7.85,9.51V36.94H67.34V15.12c0-5-2.52-7.85-6.77-7.85s-8,3-8,9.51V36.94H44.8V.94h7.78V5.26C54.88,1.73,58.41,0,62.88,0A11.17,11.17,0,0,1,73.1,5.69C75.48,1.94,79.29,0,84.12,0,92.25,0,97.73,5.62,97.73,14.62Z"/><path d="M14.49,45.64c4.83,0,8.64,1.94,11,5.68a11.16,11.16,0,0,1,10.22-5.68c4.47,0,8,1.72,10.3,5.25V46.57h7.78v36H46V62.41c0-6.55-3.6-9.5-8-9.5s-6.77,2.81-6.77,7.85V82.57H23.49V62.41c0-6.55-3.24-9.5-7.85-9.5-4.24,0-7,2.81-7,7.85V82.57H.88V60.25C.88,51.25,6.36,45.64,14.49,45.64Z"/><path d="M98.45,46.57v36H90.67V77.39c-2.74,3.82-7,6.12-12.6,6.12-9.8,0-17.93-8.28-17.93-18.94s8.13-18.93,17.93-18.93c5.61,0,9.86,2.3,12.6,6V46.57Zm-7.78,18a11.38,11.38,0,1,0-22.76,0,11.38,11.38,0,1,0,22.76,0Z"/><circle cx="109.79" cy="77.79" r="5.72"/><path d="M7.61,95.09A3.37,3.37,0,0,1,4,98.43a3.89,3.89,0,1,1,0-7.78,3.72,3.72,0,0,1,3.24,1.82l-.5.31A3.07,3.07,0,0,0,3.92,91.2a3.34,3.34,0,1,0,0,6.68A2.81,2.81,0,0,0,7,95.34H3.83V94.8H7.61Z"/><path d="M12,95.22H9.6v3.09H9V90.77h3a2.23,2.23,0,0,1,.57,4.38l1.87,3.16h-.66ZM9.6,94.68H12a1.69,1.69,0,0,0,0-3.37H9.6Z"/><path d="M20,96.4H16.19l-.73,1.91h-.6l2.93-7.54h.6l2.92,7.54h-.6Zm-.2-.54-1.68-4.39-1.68,4.39Z"/><path d="M27.32,93.11A2.28,2.28,0,0,1,25,95.44H23v2.87h-.57V90.77H25A2.28,2.28,0,0,1,27.32,93.11Zm-.57,0A1.73,1.73,0,0,0,25,91.31H23V94.9h2A1.73,1.73,0,0,0,26.75,93.11Z"/><path d="M34.25,90.77v7.54h-.57V94.7H29.29v3.61h-.57V90.77h.57v3.4h4.39v-3.4Z"/><path d="M36.69,90.77v7.54h-.57V90.77Z"/><path d="M38.13,94.54a3.83,3.83,0,0,1,3.92-3.89,3.7,3.7,0,0,1,3.24,1.81l-.51.29a3.09,3.09,0,0,0-2.73-1.55,3.34,3.34,0,1,0,0,6.68A3.07,3.07,0,0,0,44.8,96.3l.51.29a3.69,3.69,0,0,1-3.26,1.84A3.82,3.82,0,0,1,38.13,94.54Z"/><path d="M55.91,94.54a3.59,3.59,0,0,1-3.55,3.77H49.52V90.77h2.84A3.59,3.59,0,0,1,55.91,94.54Zm-.56,0a3,3,0,0,0-3-3.23H50.09v6.46h2.27A3,3,0,0,0,55.35,94.54Z"/><path d="M61.69,97.77v.54H57.35V90.77h4.29v.54H57.92v2.93h3.45v.54H57.92v3Z"/><path d="M62.64,96.65l.49-.29a2.14,2.14,0,0,0,2.26,1.52c1.26,0,1.9-.64,1.9-1.51s-.8-1.25-2-1.61S63,94,63,92.68a2.08,2.08,0,0,1,2.28-2,2.54,2.54,0,0,1,2.43,1.59l-.49.27a2,2,0,0,0-1.94-1.31,1.51,1.51,0,0,0-1.7,1.46c0,.9.76,1.18,1.84,1.54,1.34.44,2.5.86,2.5,2.16s-1,2.07-2.48,2.07A2.68,2.68,0,0,1,62.64,96.65Z"/><path d="M69.79,90.77v7.54h-.58V90.77Z"/><path d="M78.83,95.09a3.37,3.37,0,0,1-3.64,3.34,3.89,3.89,0,1,1,0-7.78,3.72,3.72,0,0,1,3.24,1.82l-.5.31a3.08,3.08,0,0,0-2.74-1.58,3.34,3.34,0,1,0,0,6.68,2.82,2.82,0,0,0,3.06-2.54h-3.2V94.8h3.78Z"/><path d="M85.79,90.77v7.54h-.51l-4.45-6.48v6.48h-.57V90.77h.5l4.46,6.49V90.77Z"/><path d="M92,97.77v.54H87.66V90.77h4.28v.54H88.23v2.93h3.44v.54H88.23v3Z"/><path d="M96.35,95.22H94v3.09H93.4V90.77h3a2.23,2.23,0,0,1,.57,4.38l1.87,3.16h-.65ZM94,94.68h2.4a1.69,1.69,0,0,0,0-3.37H94Z"/></g></g></svg>