<?xml version="1.0" encoding="utf-8"?>
<!-- Generator: Adobe Illustrator 25.0.1, SVG Export Plug-In . SVG Version: 6.00 Build 0)  -->
<svg version="1.1" xmlns="http://www.w3.org/2000/svg" xmlns:xlink="http://www.w3.org/1999/xlink" x="0px" y="0px"
	 viewBox="0 0 536.1 465.3" style="enable-background:new 0 0 536.1 465.3;" xml:space="preserve">
<style type="text/css">
	.st0{fill:#151211;}
	.st1{fill:#FFFFFF;}
	.st2{fill:none;stroke:#33FF98;stroke-width:3;stroke-miterlimit:10;}
	.st3{fill:#D8D8D8;}
	.st4{fill-rule:evenodd;clip-rule:evenodd;fill:#151211;}
	.st5{fill-rule:evenodd;clip-rule:evenodd;fill:#FFFFFF;}
	.st6{fill:#858585;stroke:#1D1D1B;stroke-width:8;stroke-linecap:round;stroke-linejoin:round;stroke-miterlimit:10;}
	.st7{fill:#6F6F6E;stroke:#1D1D1B;stroke-width:8;stroke-linecap:round;stroke-linejoin:round;stroke-miterlimit:10;}
	.st8{fill:#B0B0B0;stroke:#1D1D1B;stroke-width:6;stroke-linecap:round;stroke-linejoin:round;stroke-miterlimit:10;}
	.st9{fill:#3C3C3B;stroke:#1D1D1B;stroke-width:6;stroke-linecap:round;stroke-linejoin:round;stroke-miterlimit:10;}
	.st10{fill:#33FF99;stroke:#1D1D1B;stroke-width:8;stroke-linejoin:round;stroke-miterlimit:10;}
	.st11{fill:#33FF98;stroke:#151211;stroke-width:6;stroke-linejoin:round;stroke-miterlimit:10;}
	.st12{fill:#575756;stroke:#1D1D1B;stroke-width:6;stroke-linecap:round;stroke-linejoin:round;stroke-miterlimit:10;}
	.st13{fill:#4A4A49;stroke:#1D1D1B;stroke-width:6;stroke-linecap:round;stroke-linejoin:round;stroke-miterlimit:10;}
	.st14{fill:#9D9D9C;}
	.st15{opacity:0.35;fill:#444444;}
	.st16{fill:#575756;stroke:#1D1D1B;stroke-width:5;stroke-linecap:round;stroke-linejoin:round;stroke-miterlimit:10;}
	.st17{fill:none;stroke:#B0B0B0;stroke-width:2;stroke-linecap:round;stroke-linejoin:round;}
	.st18{fill:none;stroke:#B0B0B0;stroke-width:2;stroke-linecap:round;stroke-linejoin:round;stroke-dasharray:4.9835,4.9835;}
	.st19{fill:none;stroke:#1D1D1B;stroke-width:8;stroke-linecap:round;stroke-linejoin:round;stroke-miterlimit:10;}
	.st20{fill:#1D1D1B;}
</style>
<g id="grid_1200">
</g>
<g id="Vrstva_4">
</g>
<g id="Vrstva_5">
</g>
<g id="grafika">
</g>
<g id="VÝBĚR">
</g>
<g id="BARVY">
</g>
<g id="ZVOLENO">
</g>
<g id="FORMÁTY">
</g>
<g id="TLOUŠŤKA">
</g>
<g id="POVRCHY">
</g>
<g id="Menu">
</g>
<g id="Mapa_obrys">
	<g>
		<path class="st1" d="M98.3,142.5c19.8,0,34.7-8.9,42.6-20.5l29.4,17.2c-15.2,22.4-39.9,36-72.3,36c-54.5,0-89.8-37.3-89.8-86.8
			c0-48.9,35.3-86.8,87.1-86.8c49.2,0,82.9,39.6,82.9,87.1c0,5-0.7,10.2-1.3,14.9H45.5C51.1,129.3,71.9,142.5,98.3,142.5z
			 M142.2,74.5c-5-28.4-25.7-40.6-47.2-40.6c-26.7,0-44.9,15.8-49.8,40.6H142.2z"/>
		<path class="st1" d="M457.5,68.6v102.3h-35.7v-100c0-23.1-12.5-36-32-36c-21.1,0-36,13.5-36,43.6v92.4h-35.7v-100
			c0-23.1-11.6-36-31-36c-20.1,0-36.6,13.5-36.6,43.6v92.4h-35.6V5.9h35.6v19.8c10.6-16.2,26.7-24.1,47.2-24.1
			c21.5,0,37.3,9.6,46.9,26.1C355.5,10.5,373,1.6,395.1,1.6C432.4,1.6,457.5,27.3,457.5,68.6z"/>
		<path class="st1" d="M70.5,210.8c22.1,0,39.6,8.9,50.5,26.1c9.6-16.5,25.4-26.1,46.9-26.1c20.5,0,36.6,7.9,47.2,24.1v-19.8h35.6
			v165h-35.6v-92.4c0-30-16.5-43.6-36.6-43.6c-19.5,0-31,12.9-31,36v100h-35.7v-92.4c0-30-14.9-43.6-36-43.6c-19.5,0-32,12.9-32,36
			v100H8.2V277.8C8.2,236.5,33.2,210.8,70.5,210.8z"/>
		<path class="st1" d="M455.4,215.1v165h-35.7v-23.8c-12.5,17.5-32,28.1-57.8,28.1c-44.9,0-82.2-38-82.2-86.8
			c0-49.2,37.3-86.8,82.2-86.8c25.7,0,45.2,10.6,57.8,27.7v-23.4H455.4z M419.8,297.6c0-30.7-22.4-52.8-52.2-52.8
			c-29.7,0-52.2,22.1-52.2,52.8c0,30.7,22.4,52.8,52.2,52.8C397.3,350.4,419.8,328.3,419.8,297.6z"/>
		<circle class="st1" cx="507.4" cy="358.2" r="26.2"/>
		<g>
			<path class="st3" d="M39.3,446.5c0,8.5-6.5,15.4-16.3,15.4c-10.8,0-18.3-7.9-18.3-17.8c0-9.8,7.5-17.8,17.8-17.8
				c6.3,0,11.8,3.3,14.6,8.1l-0.8,0.5c-2.6-4.7-7.8-7.7-13.8-7.7c-9.8,0-16.8,7.6-16.8,16.9c0,9.3,7,16.9,17.3,16.9
				c9.1,0,15.1-6.4,15.3-14.2H22V446h17.3V446.5z"/>
			<path class="st3" d="M70.3,461.4l-8.8-14.9c-0.3,0-0.6,0-1,0H48.2v14.8h-1v-34.5h13.3c5.4,0,9.9,4.4,9.9,9.9
				c0,4.7-3.4,8.7-7.9,9.7l8.9,15H70.3z M60.5,445.7c4.9,0,8.9-4,8.9-9s-4-9-8.9-9H48.2v18H60.5z"/>
			<path class="st3" d="M97.9,452h-19l-3.7,9.4h-1l13.7-34.5h1.2l13.7,34.5h-1L97.9,452z M97.5,451.1l-9.2-23.2l-9.2,23.2H97.5z"/>
			<path class="st3" d="M130,437.3c0,5.9-4.4,10.4-10.6,10.4h-9.6v13.8h-1v-34.5h10.6C125.6,426.9,130,431.3,130,437.3z M129,437.3
				c0-5.4-4-9.5-9.6-9.5h-9.6v18.9h9.6C125,446.7,129,442.7,129,437.3z"/>
			<path class="st3" d="M162.1,426.9v34.5h-1v-17.3h-22.7v17.3h-1v-34.5h1v16.3h22.7v-16.3H162.1z"/>
			<path class="st3" d="M172.9,426.9v34.5h-1v-34.5H172.9z"/>
			<path class="st3" d="M180.8,444.2c0-9.8,7.5-17.8,17.8-17.8c6.2,0,11.6,3.2,14.5,7.9l-0.8,0.5c-2.7-4.5-7.8-7.6-13.7-7.6
				c-9.8,0-16.8,7.6-16.8,16.9c0,9.3,7,16.9,16.8,16.9c6,0,11.3-3.2,13.9-7.9l0.9,0.5c-2.8,5-8.4,8.3-14.8,8.3
				C188.3,461.9,180.8,454,180.8,444.2z"/>
			<path class="st3" d="M264,444.2c0,9.5-6.8,17.3-16.3,17.3h-12.3v-34.5h12.3C257.2,426.9,264,434.6,264,444.2z M263,444.2
				c0-9-6.3-16.4-15.3-16.4h-11.3v32.8h11.3C256.7,460.5,263,453.2,263,444.2z"/>
			<path class="st3" d="M291.1,460.5v0.9h-19.2v-34.5h19v0.9h-18v15.8h16.8v0.9h-16.8v16.1H291.1z"/>
			<path class="st3" d="M296.3,454.3l0.8-0.5c1.1,4.1,5.2,7.2,11.4,7.2c6.8,0,9.8-3.8,9.8-8.2c0-4.5-4.2-6.7-9.9-8.4
				c-6.1-1.8-10.7-3.7-10.7-9.1c0-4.8,4-8.9,10.2-8.9c5.6,0,8.9,3.2,10.4,7l-0.8,0.4c-1.2-3.2-3.9-6.5-9.6-6.5c-6.1,0-9.2,4.1-9.2,8
				c0,4.9,4.6,6.5,10.1,8.2c5.9,1.9,10.5,4.1,10.5,9.2c0,5.3-4,9.1-10.8,9.1C301.8,461.9,297.5,458.5,296.3,454.3z"/>
			<path class="st3" d="M327.4,426.9v34.5h-1v-34.5H327.4z"/>
			<path class="st3" d="M369.8,446.5c0,8.5-6.5,15.4-16.3,15.4c-10.8,0-18.3-7.9-18.3-17.8c0-9.8,7.5-17.8,17.8-17.8
				c6.3,0,11.8,3.3,14.6,8.1l-0.8,0.5c-2.6-4.7-7.8-7.7-13.8-7.7c-9.8,0-16.8,7.6-16.8,16.9c0,9.3,7,16.9,17.3,16.9
				c9.1,0,15.1-6.4,15.3-14.2h-16.4V446h17.3V446.5z"/>
			<path class="st3" d="M402.4,426.9v34.5h-1l-22.7-32.9v32.9h-1v-34.5h1l22.7,32.9v-32.9H402.4z"/>
			<path class="st3" d="M431.5,460.5v0.9h-19.2v-34.5h19v0.9h-18v15.8H430v0.9h-16.8v16.1H431.5z"/>
			<path class="st3" d="M462,461.4l-8.8-14.9c-0.3,0-0.6,0-1,0h-12.3v14.8h-1v-34.5h13.3c5.4,0,9.9,4.4,9.9,9.9
				c0,4.7-3.4,8.7-7.9,9.7l8.9,15H462z M452.2,445.7c4.9,0,8.9-4,8.9-9s-4-9-8.9-9h-12.3v18H452.2z"/>
		</g>
	</g>
</g>
<g id="hover_effect">
</g>
</svg>
