<svg xmlns="http://www.w3.org/2000/svg" viewBox="0 0 239.38 208.36"><defs><style>.cls-1{fill:#151211;}</style></defs><g id="Vrstva_2" data-name="Vrstva 2"><g id="Mapa_obrys" data-name="Mapa obrys"><path class="cls-1" d="M42.33,63.79c9,0,15.69-4,19.27-9.26L74.9,62.3C68,72.46,56.82,78.58,42.18,78.58,17.53,78.58,1.54,61.7,1.54,39.29,1.54,17.18,17.53,0,41,0c22.26,0,37.5,17.93,37.5,39.44a48.67,48.67,0,0,1-.59,6.72H18.42C21,57.82,30.38,63.79,42.33,63.79ZM62.2,33C60,20.17,50.55,14.64,40.83,14.64c-12.1,0-20.31,7.17-22.56,18.38Z"/><path class="cls-1" d="M204.91,30.33V76.64H188.78V31.37c0-10.45-5.68-16.28-14.5-16.28-9.56,0-16.28,6.12-16.28,19.72V76.64H141.86V31.37c0-10.45-5.22-16.28-14-16.28-9.11,0-16.58,6.12-16.58,19.72V76.64H95.1V1.94h16.14v9C116,3.59,123.34,0,132.6,0c9.71,0,16.88,4.33,21.22,11.8C158.75,4,166.66,0,176.67,0,193.56,0,204.91,11.65,204.91,30.33Z"/><path class="cls-1" d="M29.78,94.69c10,0,17.93,4,22.86,11.8C57,99,64.14,94.69,73.85,94.69c9.26,0,16.59,3.58,21.37,10.9v-9h16.13v74.7H95.22V129.5c0-13.6-7.47-19.72-16.59-19.72-8.81,0-14,5.82-14,16.28v45.27H48.45V129.5c0-13.6-6.72-19.72-16.28-19.72-8.82,0-14.49,5.82-14.49,16.28v45.27H1.54V125C1.54,106.34,12.9,94.69,29.78,94.69Z"/><path class="cls-1" d="M204,96.63v74.7H187.83V160.57c-5.67,7.92-14.49,12.7-26.14,12.7-20.32,0-37.2-17.18-37.2-39.29s16.88-39.29,37.2-39.29c11.65,0,20.47,4.78,26.14,12.55V96.63ZM187.83,134c0-13.9-10.16-23.9-23.6-23.9s-23.61,10-23.61,23.9,10.16,23.9,23.61,23.9S187.83,147.87,187.83,134Z"/><circle class="cls-1" cx="227.51" cy="161.4" r="11.87"/><path class="cls-1" d="M15.64,201.36c0,3.85-2.93,7-7.37,7A8,8,0,1,1,8,192.27,7.59,7.59,0,0,1,14.65,196l-.38.22A7.08,7.08,0,0,0,8,192.67,7.64,7.64,0,1,0,8.27,208a6.57,6.57,0,0,0,6.94-6.41H7.8v-.4h7.84Z"/><path class="cls-1" d="M29.67,208.13l-4-6.72a3.24,3.24,0,0,1-.45,0H19.66v6.7h-.45V192.5h6a4.47,4.47,0,0,1,.9,8.84l4,6.79ZM25.24,201a4.07,4.07,0,0,0,0-8.13H19.66V201Z"/><path class="cls-1" d="M42.15,203.87H33.53l-1.68,4.26h-.47l6.19-15.63h.54l6.19,15.63h-.47Zm-.15-.41L37.84,193l-4.15,10.5Z"/><path class="cls-1" d="M56.69,197.19a4.61,4.61,0,0,1-4.8,4.69H47.53v6.25h-.44V192.5h4.8A4.61,4.61,0,0,1,56.69,197.19Zm-.44,0a4.18,4.18,0,0,0-4.36-4.29H47.53v8.58h4.36A4.19,4.19,0,0,0,56.25,197.19Z"/><path class="cls-1" d="M71.21,192.5v15.63h-.44v-7.84H60.49v7.84H60V192.5h.45v7.39H70.77V192.5Z"/><path class="cls-1" d="M76.13,192.5v15.63h-.45V192.5Z"/><path class="cls-1" d="M79.7,200.31a7.9,7.9,0,0,1,8-8,7.63,7.63,0,0,1,6.57,3.6l-.38.22a7.17,7.17,0,0,0-6.19-3.42,7.64,7.64,0,0,0,0,15.28A7.09,7.09,0,0,0,94,204.38l.4.22a7.61,7.61,0,0,1-6.68,3.76A7.9,7.9,0,0,1,79.7,200.31Z"/><path class="cls-1" d="M117.32,200.31c0,4.32-3.06,7.82-7.37,7.82h-5.59V192.5H110C114.26,192.5,117.32,196,117.32,200.31Zm-.45,0c0-4.08-2.84-7.41-6.92-7.41h-5.14v14.83H110C114,207.73,116.87,204.4,116.87,200.31Z"/><path class="cls-1" d="M129.6,207.73v.4h-8.71V192.5h8.6v.4h-8.15v7.15h7.59v.4h-7.59v7.28Z"/><path class="cls-1" d="M132,204.92l.38-.23c.51,1.88,2.34,3.26,5.13,3.26,3.07,0,4.43-1.74,4.43-3.73s-1.9-3-4.49-3.79c-2.75-.81-4.83-1.68-4.83-4.11,0-2.19,1.81-4,4.6-4a4.8,4.8,0,0,1,4.72,3.15l-.36.2a4.36,4.36,0,0,0-4.36-3c-2.77,0-4.15,1.88-4.15,3.65,0,2.23,2.1,2.92,4.56,3.73,2.66.87,4.75,1.85,4.75,4.17s-1.8,4.14-4.87,4.14S132.51,206.81,132,204.92Z"/><path class="cls-1" d="M146,192.5v15.63h-.45V192.5Z"/><path class="cls-1" d="M165.23,201.36c0,3.85-2.93,7-7.37,7a8,8,0,1,1-.22-16.09,7.61,7.61,0,0,1,6.61,3.69l-.38.22a7.09,7.09,0,0,0-6.23-3.51,7.64,7.64,0,1,0,.22,15.28,6.58,6.58,0,0,0,6.95-6.41h-7.42v-.4h7.84Z"/><path class="cls-1" d="M180,192.5v15.63h-.44l-10.28-14.88v14.88h-.45V192.5h.45l10.28,14.87V192.5Z"/><path class="cls-1" d="M193.15,207.73v.4h-8.71V192.5H193v.4h-8.15v7.15h7.59v.4h-7.59v7.28Z"/><path class="cls-1" d="M207,208.13l-4-6.72a3.17,3.17,0,0,1-.45,0H197v6.7h-.45V192.5h6a4.47,4.47,0,0,1,.9,8.84l4,6.79Zm-4.43-7.1a4.07,4.07,0,0,0,0-8.13H197V201Z"/></g></g></svg>